<svg xmlns="http://www.w3.org/2000/svg" xmlns:xlink="http://www.w3.org/1999/xlink" width="457" zoomAndPan="magnify" viewBox="0 0 342.75 131.249995" height="175" preserveAspectRatio="xMidYMid meet" version="1.0"><defs><g/><clipPath id="55fedc90e2"><path d="M 85 27.214844 L 100 27.214844 L 100 42 L 85 42 Z M 85 27.214844 " clip-rule="nonzero"/></clipPath><clipPath id="99e691b069"><path d="M 84 27.214844 L 99 27.214844 L 99 42 L 84 42 Z M 84 27.214844 " clip-rule="nonzero"/></clipPath><clipPath id="6b5bc571f3"><path d="M 125 80 L 127.335938 80 L 127.335938 83 L 125 83 Z M 125 80 " clip-rule="nonzero"/></clipPath><clipPath id="006850ac90"><path d="M 125 82 L 127.335938 82 L 127.335938 85 L 125 85 Z M 125 82 " clip-rule="nonzero"/></clipPath><clipPath id="85f1fdf88f"><path d="M 46.050781 46 L 49 46 L 49 49 L 46.050781 49 Z M 46.050781 46 " clip-rule="nonzero"/></clipPath></defs><g fill="#ff00ff" fill-opacity="1"><g transform="translate(149.129918, 91.414849)"><g><path d="M 16.625 0 L 6.71875 0 C 5.90625 0 5.316406 -0.179688 4.953125 -0.546875 C 4.585938 -0.910156 4.40625 -1.492188 4.40625 -2.296875 L 4.40625 -43.75 C 4.40625 -44.5625 4.585938 -45.148438 4.953125 -45.515625 C 5.316406 -45.878906 5.90625 -46.0625 6.71875 -46.0625 L 16.625 -46.0625 C 17.4375 -46.0625 18.023438 -45.878906 18.390625 -45.515625 C 18.753906 -45.148438 18.9375 -44.5625 18.9375 -43.75 L 18.9375 -29.046875 L 21.5 -29.046875 L 28.078125 -43.953125 C 28.378906 -44.710938 28.785156 -45.253906 29.296875 -45.578125 C 29.804688 -45.898438 30.46875 -46.0625 31.28125 -46.0625 L 41.125 -46.0625 C 41.851562 -46.0625 42.34375 -45.878906 42.59375 -45.515625 C 42.851562 -45.148438 42.835938 -44.628906 42.546875 -43.953125 L 36.015625 -29.046875 C 38.398438 -28.910156 40.304688 -28.066406 41.734375 -26.515625 C 43.160156 -24.960938 43.875 -22.90625 43.875 -20.34375 L 43.875 -2.296875 C 43.875 -1.492188 43.691406 -0.910156 43.328125 -0.546875 C 42.972656 -0.179688 42.390625 0 41.578125 0 L 31.734375 0 C 30.921875 0 30.332031 -0.179688 29.96875 -0.546875 C 29.601562 -0.910156 29.421875 -1.492188 29.421875 -2.296875 L 29.421875 -14.78125 C 29.421875 -15.457031 29.25 -15.988281 28.90625 -16.375 C 28.570312 -16.757812 28.0625 -16.953125 27.375 -16.953125 L 18.9375 -16.953125 L 18.9375 -2.296875 C 18.9375 -1.492188 18.753906 -0.910156 18.390625 -0.546875 C 18.023438 -0.179688 17.4375 0 16.625 0 Z M 16.625 0 "/></g></g></g><g fill="#ff00ff" fill-opacity="1"><g transform="translate(196.847058, 91.414849)"><g><path d="M 16.3125 0 L 6.71875 0 C 5.90625 0 5.316406 -0.179688 4.953125 -0.546875 C 4.585938 -0.910156 4.40625 -1.492188 4.40625 -2.296875 L 4.40625 -43.75 C 4.40625 -44.5625 4.585938 -45.148438 4.953125 -45.515625 C 5.316406 -45.878906 5.90625 -46.0625 6.71875 -46.0625 L 13.375 -46.0625 C 14.175781 -46.0625 14.863281 -45.929688 15.4375 -45.671875 C 16.019531 -45.421875 16.585938 -44.972656 17.140625 -44.328125 L 29.546875 -30.125 L 29.546875 -43.75 C 29.546875 -44.5625 29.726562 -45.148438 30.09375 -45.515625 C 30.457031 -45.878906 31.046875 -46.0625 31.859375 -46.0625 L 41.453125 -46.0625 C 42.265625 -46.0625 42.847656 -45.878906 43.203125 -45.515625 C 43.566406 -45.148438 43.75 -44.5625 43.75 -43.75 L 43.75 -2.296875 C 43.75 -1.492188 43.566406 -0.910156 43.203125 -0.546875 C 42.847656 -0.179688 42.265625 0 41.453125 0 L 31.859375 0 C 31.046875 0 30.457031 -0.179688 30.09375 -0.546875 C 29.726562 -0.910156 29.546875 -1.492188 29.546875 -2.296875 L 29.546875 -10.171875 L 18.609375 -23.40625 L 18.609375 -2.296875 C 18.609375 -1.492188 18.425781 -0.910156 18.0625 -0.546875 C 17.707031 -0.179688 17.125 0 16.3125 0 Z M 16.3125 0 "/></g></g></g><g fill="#ff00ff" fill-opacity="1"><g transform="translate(245.011944, 91.414849)"><g><path d="M 31.28125 0 L 6.71875 0 C 5.90625 0 5.316406 -0.179688 4.953125 -0.546875 C 4.585938 -0.910156 4.40625 -1.492188 4.40625 -2.296875 L 4.40625 -43.75 C 4.40625 -44.5625 4.585938 -45.148438 4.953125 -45.515625 C 5.316406 -45.878906 5.90625 -46.0625 6.71875 -46.0625 L 27.125 -46.0625 C 31.300781 -46.0625 34.390625 -45.257812 36.390625 -43.65625 C 38.398438 -42.0625 39.40625 -39.597656 39.40625 -36.265625 L 39.40625 -33.203125 C 39.40625 -31.410156 39.09375 -29.945312 38.46875 -28.8125 C 37.851562 -27.6875 36.90625 -26.847656 35.625 -26.296875 C 38.351562 -26.035156 40.378906 -25.09375 41.703125 -23.46875 C 43.023438 -21.851562 43.6875 -19.488281 43.6875 -16.375 L 43.6875 -10.484375 C 43.6875 -6.910156 42.671875 -4.269531 40.640625 -2.5625 C 38.617188 -0.851562 35.5 0 31.28125 0 Z M 18.8125 -35.1875 L 18.8125 -28.28125 L 24.25 -28.28125 C 25.050781 -28.28125 25.65625 -28.488281 26.0625 -28.90625 C 26.46875 -29.332031 26.671875 -29.972656 26.671875 -30.828125 L 26.671875 -32.625 C 26.671875 -33.476562 26.46875 -34.117188 26.0625 -34.546875 C 25.65625 -34.972656 25.050781 -35.1875 24.25 -35.1875 Z M 18.8125 -18.421875 L 18.8125 -10.875 L 27.125 -10.875 C 27.9375 -10.875 28.539062 -11.085938 28.9375 -11.515625 C 29.34375 -11.941406 29.546875 -12.582031 29.546875 -13.4375 L 29.546875 -15.921875 C 29.546875 -16.773438 29.34375 -17.40625 28.9375 -17.8125 C 28.539062 -18.21875 27.9375 -18.421875 27.125 -18.421875 Z M 18.8125 -18.421875 "/></g></g></g><g fill="#00ffff" fill-opacity="1"><g transform="translate(152.463019, 88.306685)"><g><path d="M 16.625 0 L 6.71875 0 C 5.90625 0 5.316406 -0.179688 4.953125 -0.546875 C 4.585938 -0.910156 4.40625 -1.492188 4.40625 -2.296875 L 4.40625 -43.75 C 4.40625 -44.5625 4.585938 -45.148438 4.953125 -45.515625 C 5.316406 -45.878906 5.90625 -46.0625 6.71875 -46.0625 L 16.625 -46.0625 C 17.4375 -46.0625 18.023438 -45.878906 18.390625 -45.515625 C 18.753906 -45.148438 18.9375 -44.5625 18.9375 -43.75 L 18.9375 -29.046875 L 21.5 -29.046875 L 28.078125 -43.953125 C 28.378906 -44.710938 28.785156 -45.253906 29.296875 -45.578125 C 29.804688 -45.898438 30.46875 -46.0625 31.28125 -46.0625 L 41.125 -46.0625 C 41.851562 -46.0625 42.34375 -45.878906 42.59375 -45.515625 C 42.851562 -45.148438 42.835938 -44.628906 42.546875 -43.953125 L 36.015625 -29.046875 C 38.398438 -28.910156 40.304688 -28.066406 41.734375 -26.515625 C 43.160156 -24.960938 43.875 -22.90625 43.875 -20.34375 L 43.875 -2.296875 C 43.875 -1.492188 43.691406 -0.910156 43.328125 -0.546875 C 42.972656 -0.179688 42.390625 0 41.578125 0 L 31.734375 0 C 30.921875 0 30.332031 -0.179688 29.96875 -0.546875 C 29.601562 -0.910156 29.421875 -1.492188 29.421875 -2.296875 L 29.421875 -14.78125 C 29.421875 -15.457031 29.25 -15.988281 28.90625 -16.375 C 28.570312 -16.757812 28.0625 -16.953125 27.375 -16.953125 L 18.9375 -16.953125 L 18.9375 -2.296875 C 18.9375 -1.492188 18.753906 -0.910156 18.390625 -0.546875 C 18.023438 -0.179688 17.4375 0 16.625 0 Z M 16.625 0 "/></g></g></g><g fill="#00ffff" fill-opacity="1"><g transform="translate(200.180159, 88.306685)"><g><path d="M 16.3125 0 L 6.71875 0 C 5.90625 0 5.316406 -0.179688 4.953125 -0.546875 C 4.585938 -0.910156 4.40625 -1.492188 4.40625 -2.296875 L 4.40625 -43.75 C 4.40625 -44.5625 4.585938 -45.148438 4.953125 -45.515625 C 5.316406 -45.878906 5.90625 -46.0625 6.71875 -46.0625 L 13.375 -46.0625 C 14.175781 -46.0625 14.863281 -45.929688 15.4375 -45.671875 C 16.019531 -45.421875 16.585938 -44.972656 17.140625 -44.328125 L 29.546875 -30.125 L 29.546875 -43.75 C 29.546875 -44.5625 29.726562 -45.148438 30.09375 -45.515625 C 30.457031 -45.878906 31.046875 -46.0625 31.859375 -46.0625 L 41.453125 -46.0625 C 42.265625 -46.0625 42.847656 -45.878906 43.203125 -45.515625 C 43.566406 -45.148438 43.75 -44.5625 43.75 -43.75 L 43.75 -2.296875 C 43.75 -1.492188 43.566406 -0.910156 43.203125 -0.546875 C 42.847656 -0.179688 42.265625 0 41.453125 0 L 31.859375 0 C 31.046875 0 30.457031 -0.179688 30.09375 -0.546875 C 29.726562 -0.910156 29.546875 -1.492188 29.546875 -2.296875 L 29.546875 -10.171875 L 18.609375 -23.40625 L 18.609375 -2.296875 C 18.609375 -1.492188 18.425781 -0.910156 18.0625 -0.546875 C 17.707031 -0.179688 17.125 0 16.3125 0 Z M 16.3125 0 "/></g></g></g><g fill="#00ffff" fill-opacity="1"><g transform="translate(248.345045, 88.306685)"><g><path d="M 31.28125 0 L 6.71875 0 C 5.90625 0 5.316406 -0.179688 4.953125 -0.546875 C 4.585938 -0.910156 4.40625 -1.492188 4.40625 -2.296875 L 4.40625 -43.75 C 4.40625 -44.5625 4.585938 -45.148438 4.953125 -45.515625 C 5.316406 -45.878906 5.90625 -46.0625 6.71875 -46.0625 L 27.125 -46.0625 C 31.300781 -46.0625 34.390625 -45.257812 36.390625 -43.65625 C 38.398438 -42.0625 39.40625 -39.597656 39.40625 -36.265625 L 39.40625 -33.203125 C 39.40625 -31.410156 39.09375 -29.945312 38.46875 -28.8125 C 37.851562 -27.6875 36.90625 -26.847656 35.625 -26.296875 C 38.351562 -26.035156 40.378906 -25.09375 41.703125 -23.46875 C 43.023438 -21.851562 43.6875 -19.488281 43.6875 -16.375 L 43.6875 -10.484375 C 43.6875 -6.910156 42.671875 -4.269531 40.640625 -2.5625 C 38.617188 -0.851562 35.5 0 31.28125 0 Z M 18.8125 -35.1875 L 18.8125 -28.28125 L 24.25 -28.28125 C 25.050781 -28.28125 25.65625 -28.488281 26.0625 -28.90625 C 26.46875 -29.332031 26.671875 -29.972656 26.671875 -30.828125 L 26.671875 -32.625 C 26.671875 -33.476562 26.46875 -34.117188 26.0625 -34.546875 C 25.65625 -34.972656 25.050781 -35.1875 24.25 -35.1875 Z M 18.8125 -18.421875 L 18.8125 -10.875 L 27.125 -10.875 C 27.9375 -10.875 28.539062 -11.085938 28.9375 -11.515625 C 29.34375 -11.941406 29.546875 -12.582031 29.546875 -13.4375 L 29.546875 -15.921875 C 29.546875 -16.773438 29.34375 -17.40625 28.9375 -17.8125 C 28.539062 -18.21875 27.9375 -18.421875 27.125 -18.421875 Z M 18.8125 -18.421875 "/></g></g></g><g fill="#7843e6" fill-opacity="1"><g transform="translate(150.796469, 89.860768)"><g><path d="M 16.625 0 L 6.71875 0 C 5.90625 0 5.316406 -0.179688 4.953125 -0.546875 C 4.585938 -0.910156 4.40625 -1.492188 4.40625 -2.296875 L 4.40625 -43.75 C 4.40625 -44.5625 4.585938 -45.148438 4.953125 -45.515625 C 5.316406 -45.878906 5.90625 -46.0625 6.71875 -46.0625 L 16.625 -46.0625 C 17.4375 -46.0625 18.023438 -45.878906 18.390625 -45.515625 C 18.753906 -45.148438 18.9375 -44.5625 18.9375 -43.75 L 18.9375 -29.046875 L 21.5 -29.046875 L 28.078125 -43.953125 C 28.378906 -44.710938 28.785156 -45.253906 29.296875 -45.578125 C 29.804688 -45.898438 30.46875 -46.0625 31.28125 -46.0625 L 41.125 -46.0625 C 41.851562 -46.0625 42.34375 -45.878906 42.59375 -45.515625 C 42.851562 -45.148438 42.835938 -44.628906 42.546875 -43.953125 L 36.015625 -29.046875 C 38.398438 -28.910156 40.304688 -28.066406 41.734375 -26.515625 C 43.160156 -24.960938 43.875 -22.90625 43.875 -20.34375 L 43.875 -2.296875 C 43.875 -1.492188 43.691406 -0.910156 43.328125 -0.546875 C 42.972656 -0.179688 42.390625 0 41.578125 0 L 31.734375 0 C 30.921875 0 30.332031 -0.179688 29.96875 -0.546875 C 29.601562 -0.910156 29.421875 -1.492188 29.421875 -2.296875 L 29.421875 -14.78125 C 29.421875 -15.457031 29.25 -15.988281 28.90625 -16.375 C 28.570312 -16.757812 28.0625 -16.953125 27.375 -16.953125 L 18.9375 -16.953125 L 18.9375 -2.296875 C 18.9375 -1.492188 18.753906 -0.910156 18.390625 -0.546875 C 18.023438 -0.179688 17.4375 0 16.625 0 Z M 16.625 0 "/></g></g></g><g fill="#7843e6" fill-opacity="1"><g transform="translate(198.513608, 89.860768)"><g><path d="M 16.3125 0 L 6.71875 0 C 5.90625 0 5.316406 -0.179688 4.953125 -0.546875 C 4.585938 -0.910156 4.40625 -1.492188 4.40625 -2.296875 L 4.40625 -43.75 C 4.40625 -44.5625 4.585938 -45.148438 4.953125 -45.515625 C 5.316406 -45.878906 5.90625 -46.0625 6.71875 -46.0625 L 13.375 -46.0625 C 14.175781 -46.0625 14.863281 -45.929688 15.4375 -45.671875 C 16.019531 -45.421875 16.585938 -44.972656 17.140625 -44.328125 L 29.546875 -30.125 L 29.546875 -43.75 C 29.546875 -44.5625 29.726562 -45.148438 30.09375 -45.515625 C 30.457031 -45.878906 31.046875 -46.0625 31.859375 -46.0625 L 41.453125 -46.0625 C 42.265625 -46.0625 42.847656 -45.878906 43.203125 -45.515625 C 43.566406 -45.148438 43.75 -44.5625 43.75 -43.75 L 43.75 -2.296875 C 43.75 -1.492188 43.566406 -0.910156 43.203125 -0.546875 C 42.847656 -0.179688 42.265625 0 41.453125 0 L 31.859375 0 C 31.046875 0 30.457031 -0.179688 30.09375 -0.546875 C 29.726562 -0.910156 29.546875 -1.492188 29.546875 -2.296875 L 29.546875 -10.171875 L 18.609375 -23.40625 L 18.609375 -2.296875 C 18.609375 -1.492188 18.425781 -0.910156 18.0625 -0.546875 C 17.707031 -0.179688 17.125 0 16.3125 0 Z M 16.3125 0 "/></g></g></g><g fill="#7843e6" fill-opacity="1"><g transform="translate(246.678495, 89.860768)"><g><path d="M 31.28125 0 L 6.71875 0 C 5.90625 0 5.316406 -0.179688 4.953125 -0.546875 C 4.585938 -0.910156 4.40625 -1.492188 4.40625 -2.296875 L 4.40625 -43.75 C 4.40625 -44.5625 4.585938 -45.148438 4.953125 -45.515625 C 5.316406 -45.878906 5.90625 -46.0625 6.71875 -46.0625 L 27.125 -46.0625 C 31.300781 -46.0625 34.390625 -45.257812 36.390625 -43.65625 C 38.398438 -42.0625 39.40625 -39.597656 39.40625 -36.265625 L 39.40625 -33.203125 C 39.40625 -31.410156 39.09375 -29.945312 38.46875 -28.8125 C 37.851562 -27.6875 36.90625 -26.847656 35.625 -26.296875 C 38.351562 -26.035156 40.378906 -25.09375 41.703125 -23.46875 C 43.023438 -21.851562 43.6875 -19.488281 43.6875 -16.375 L 43.6875 -10.484375 C 43.6875 -6.910156 42.671875 -4.269531 40.640625 -2.5625 C 38.617188 -0.851562 35.5 0 31.28125 0 Z M 18.8125 -35.1875 L 18.8125 -28.28125 L 24.25 -28.28125 C 25.050781 -28.28125 25.65625 -28.488281 26.0625 -28.90625 C 26.46875 -29.332031 26.671875 -29.972656 26.671875 -30.828125 L 26.671875 -32.625 C 26.671875 -33.476562 26.46875 -34.117188 26.0625 -34.546875 C 25.65625 -34.972656 25.050781 -35.1875 24.25 -35.1875 Z M 18.8125 -18.421875 L 18.8125 -10.875 L 27.125 -10.875 C 27.9375 -10.875 28.539062 -11.085938 28.9375 -11.515625 C 29.34375 -11.941406 29.546875 -12.582031 29.546875 -13.4375 L 29.546875 -15.921875 C 29.546875 -16.773438 29.34375 -17.40625 28.9375 -17.8125 C 28.539062 -18.21875 27.9375 -18.421875 27.125 -18.421875 Z M 18.8125 -18.421875 "/></g></g></g><path fill="#e5e0fc" d="M 62.804688 57.628906 C 59.246094 57.3125 55.496094 58.882812 53.503906 61.832031 C 51.507812 64.785156 51.539062 69.054688 53.824219 71.785156 C 55.777344 74.113281 59.050781 75.222656 60.539062 77.871094 C 62.304688 81.007812 60.867188 84.90625 60.980469 88.5 C 61.164062 94.5 66.046875 99.691406 71.785156 101.496094 C 77.527344 103.296875 83.863281 102.1875 89.371094 99.753906 C 92.957031 98.167969 96.617188 95.597656 97.335938 91.753906 C 97.601562 90.324219 97.429688 88.851562 97.570312 87.40625 C 97.714844 85.960938 98.285156 84.417969 99.554688 83.707031 C 101.238281 82.761719 103.398438 83.675781 104.792969 85.003906 C 106.1875 86.332031 107.191406 88.058594 108.71875 89.234375 C 112.027344 91.769531 117.15625 90.882812 120.109375 87.941406 C 123.0625 85.003906 124.078125 80.550781 123.722656 76.402344 C 123.449219 73.273438 122.121094 69.828125 119.175781 68.722656 C 118.203125 68.359375 117.105469 68.273438 116.257812 67.679688 C 114.949219 66.765625 114.648438 64.933594 114.894531 63.359375 C 115.136719 61.78125 115.800781 60.296875 115.980469 58.714844 C 116.394531 55.046875 113.78125 51.273438 110.195312 50.359375 C 107.265625 49.613281 104.039062 50.601562 101.199219 49.558594 C 98.394531 48.527344 96.636719 45.773438 95.347656 43.082031 C 94.058594 40.390625 92.9375 37.480469 90.691406 35.519531 C 88.523438 33.621094 85.40625 32.855469 82.605469 33.53125 C 79.800781 34.203125 77.378906 36.296875 76.320312 38.96875 C 75.328125 41.46875 75.496094 44.261719 75.84375 46.929688 C 76.363281 50.941406 77.664062 57.332031 73.6875 60.179688 C 72.234375 61.222656 70.640625 60.875 69.148438 60.089844 C 67.023438 59 65.269531 57.84375 62.804688 57.628906 Z M 62.804688 57.628906 " fill-opacity="1" fill-rule="nonzero"/><g clip-path="url(#55fedc90e2)"><path fill="#000000" d="M 98.679688 39.363281 L 95.589844 36.273438 L 95.007812 36.859375 L 94.300781 36.160156 C 94.332031 36.128906 94.355469 36.085938 94.394531 36.042969 C 95.949219 33.925781 95.824219 31.015625 93.972656 29.175781 C 92.980469 28.203125 91.664062 27.652344 90.269531 27.652344 C 88.863281 27.652344 87.542969 28.195312 86.558594 29.175781 C 84.515625 31.222656 84.515625 34.542969 86.558594 36.574219 C 87.554688 37.5625 88.875 38.097656 90.269531 38.097656 C 91.394531 38.097656 92.480469 37.683594 93.445312 37 C 93.488281 36.976562 93.527344 36.945312 93.5625 36.90625 L 94.25 37.605469 L 93.667969 38.171875 L 96.773438 41.261719 C 97.03125 41.519531 97.359375 41.648438 97.726562 41.648438 C 98.089844 41.648438 98.425781 41.507812 98.671875 41.261719 C 99.199219 40.734375 99.199219 39.882812 98.679688 39.363281 Z M 93.117188 35.714844 C 92.367188 36.476562 91.359375 36.902344 90.269531 36.902344 C 89.179688 36.902344 88.164062 36.488281 87.414062 35.726562 C 86.652344 34.976562 86.238281 33.957031 86.238281 32.882812 C 86.238281 31.796875 86.652344 30.789062 87.414062 30.042969 C 88.164062 29.28125 89.171875 28.855469 90.269531 28.855469 C 91.359375 28.855469 92.367188 29.269531 93.117188 30.03125 C 93.878906 30.78125 94.292969 31.800781 94.292969 32.875 C 94.292969 33.960938 93.878906 34.96875 93.117188 35.714844 Z M 94.460938 37.394531 L 93.78125 36.714844 C 93.960938 36.566406 93.949219 36.574219 94.109375 36.375 L 94.808594 37.0625 Z M 94.460938 37.394531 " fill-opacity="0.1" fill-rule="nonzero"/></g><g clip-path="url(#99e691b069)"><path fill="#6644a8" d="M 97.851562 38.953125 L 94.757812 35.859375 L 94.175781 36.445312 L 93.476562 35.746094 C 93.507812 35.714844 93.53125 35.671875 93.570312 35.628906 C 95.125 33.511719 95 30.605469 93.148438 28.765625 C 92.15625 27.789062 90.839844 27.238281 89.445312 27.238281 C 88.039062 27.238281 86.71875 27.78125 85.734375 28.765625 C 83.691406 30.808594 83.691406 34.128906 85.734375 36.160156 C 86.730469 37.148438 88.050781 37.683594 89.445312 37.683594 C 90.570312 37.683594 91.65625 37.273438 92.621094 36.585938 C 92.664062 36.5625 92.703125 36.53125 92.738281 36.492188 L 93.425781 37.191406 L 92.84375 37.757812 L 95.949219 40.847656 C 96.207031 41.105469 96.535156 41.234375 96.902344 41.234375 C 97.269531 41.234375 97.601562 41.09375 97.851562 40.847656 C 98.371094 40.320312 98.371094 39.46875 97.851562 38.953125 Z M 92.289062 35.300781 C 91.539062 36.0625 90.527344 36.488281 89.4375 36.488281 C 88.347656 36.488281 87.332031 36.074219 86.582031 35.316406 C 85.820312 34.5625 85.40625 33.542969 85.40625 32.46875 C 85.40625 31.382812 85.820312 30.375 86.582031 29.628906 C 87.332031 28.867188 88.34375 28.441406 89.4375 28.441406 C 90.527344 28.441406 91.539062 28.855469 92.289062 29.617188 C 93.050781 30.371094 93.464844 31.386719 93.464844 32.460938 C 93.464844 33.546875 93.050781 34.554688 92.289062 35.300781 Z M 93.632812 36.980469 L 92.949219 36.300781 C 93.128906 36.15625 93.117188 36.160156 93.277344 35.964844 L 93.980469 36.648438 Z M 93.632812 36.980469 " fill-opacity="1" fill-rule="nonzero"/></g><path fill="#6644a8" d="M 106.367188 64.949219 C 106.285156 64.949219 106.203125 64.917969 106.148438 64.859375 C 106.027344 64.734375 106.027344 64.542969 106.148438 64.417969 L 109.074219 61.503906 C 109.195312 61.382812 109.386719 61.382812 109.511719 61.503906 C 109.636719 61.628906 109.636719 61.820312 109.511719 61.945312 L 106.589844 64.859375 C 106.527344 64.917969 106.445312 64.949219 106.367188 64.949219 Z M 106.367188 64.949219 " fill-opacity="1" fill-rule="nonzero"/><path fill="#6644a8" d="M 109.296875 64.949219 C 109.214844 64.949219 109.132812 64.917969 109.078125 64.859375 L 106.15625 61.945312 C 106.03125 61.820312 106.03125 61.628906 106.15625 61.503906 C 106.28125 61.382812 106.472656 61.382812 106.59375 61.503906 L 109.519531 64.417969 C 109.640625 64.542969 109.640625 64.734375 109.519531 64.859375 C 109.449219 64.917969 109.371094 64.949219 109.296875 64.949219 Z M 109.296875 64.949219 " fill-opacity="1" fill-rule="nonzero"/><path fill="#6644a8" d="M 94.195312 47.792969 C 93.210938 47.792969 92.410156 46.996094 92.410156 46.015625 C 92.410156 45.03125 93.210938 44.230469 94.195312 44.230469 C 95.179688 44.230469 95.984375 45.03125 95.984375 46.015625 C 95.992188 46.996094 95.1875 47.792969 94.195312 47.792969 Z M 94.195312 44.847656 C 93.550781 44.847656 93.03125 45.371094 93.03125 46.015625 C 93.03125 46.65625 93.550781 47.175781 94.195312 47.175781 C 94.839844 47.175781 95.367188 46.65625 95.367188 46.015625 C 95.371094 45.371094 94.847656 44.847656 94.195312 44.847656 Z M 94.195312 44.847656 " fill-opacity="1" fill-rule="nonzero"/><path fill="#6644a8" d="M 79.4375 51.261719 C 78.667969 51.261719 78.042969 50.640625 78.042969 49.875 C 78.042969 49.109375 78.667969 48.484375 79.4375 48.484375 C 80.203125 48.484375 80.828125 49.109375 80.828125 49.875 C 80.835938 50.640625 80.210938 51.261719 79.4375 51.261719 Z M 79.4375 48.964844 C 78.933594 48.964844 78.527344 49.375 78.527344 49.875 C 78.527344 50.375 78.933594 50.78125 79.4375 50.78125 C 79.9375 50.78125 80.347656 50.375 80.347656 49.875 C 80.351562 49.375 79.945312 48.964844 79.4375 48.964844 Z M 79.4375 48.964844 " fill-opacity="1" fill-rule="nonzero"/><path fill="#6644a8" d="M 103.457031 37.394531 C 102.46875 37.394531 101.671875 36.597656 101.671875 35.617188 C 101.671875 34.636719 102.46875 33.832031 103.457031 33.832031 C 104.441406 33.832031 105.246094 34.636719 105.246094 35.617188 C 105.246094 36.59375 104.441406 37.394531 103.457031 37.394531 Z M 103.457031 34.445312 C 102.8125 34.445312 102.289062 34.96875 102.289062 35.609375 C 102.289062 36.253906 102.8125 36.773438 103.457031 36.773438 C 104.097656 36.773438 104.625 36.253906 104.625 35.609375 C 104.625 34.96875 104.097656 34.445312 103.457031 34.445312 Z M 103.457031 34.445312 " fill-opacity="1" fill-rule="nonzero"/><path fill="#6644a8" d="M 79.601562 40.320312 C 79.542969 40.320312 79.484375 40.296875 79.441406 40.253906 L 78.601562 39.414062 C 78.507812 39.320312 78.507812 39.179688 78.601562 39.085938 C 78.691406 38.996094 78.835938 38.996094 78.929688 39.085938 L 79.769531 39.925781 C 79.863281 40.019531 79.863281 40.160156 79.769531 40.253906 C 79.722656 40.296875 79.664062 40.320312 79.601562 40.320312 Z M 79.601562 40.320312 " fill-opacity="1" fill-rule="nonzero"/><path fill="#6644a8" d="M 81.523438 38.40625 C 81.460938 38.40625 81.40625 38.382812 81.363281 38.339844 L 80.519531 37.5 C 80.425781 37.40625 80.425781 37.265625 80.519531 37.171875 C 80.613281 37.082031 80.753906 37.082031 80.847656 37.171875 L 81.691406 38.011719 C 81.785156 38.105469 81.785156 38.246094 81.691406 38.339844 C 81.640625 38.382812 81.585938 38.40625 81.523438 38.40625 Z M 81.523438 38.40625 " fill-opacity="1" fill-rule="nonzero"/><path fill="#6644a8" d="M 78.761719 38.40625 C 78.699219 38.40625 78.644531 38.382812 78.601562 38.339844 C 78.507812 38.246094 78.507812 38.105469 78.601562 38.011719 L 79.441406 37.171875 C 79.535156 37.082031 79.675781 37.082031 79.769531 37.171875 C 79.863281 37.265625 79.863281 37.40625 79.769531 37.5 L 78.929688 38.339844 C 78.878906 38.382812 78.824219 38.40625 78.761719 38.40625 Z M 78.761719 38.40625 " fill-opacity="1" fill-rule="nonzero"/><path fill="#6644a8" d="M 80.679688 40.320312 C 80.617188 40.320312 80.5625 40.296875 80.519531 40.253906 C 80.425781 40.160156 80.425781 40.019531 80.519531 39.925781 L 81.363281 39.085938 C 81.457031 38.996094 81.597656 38.996094 81.691406 39.085938 C 81.785156 39.179688 81.785156 39.320312 81.691406 39.414062 L 80.847656 40.253906 C 80.796875 40.296875 80.742188 40.320312 80.679688 40.320312 Z M 80.679688 40.320312 " fill-opacity="1" fill-rule="nonzero"/><path fill="#6644a8" d="M 121.144531 46.453125 C 121.082031 46.453125 121.027344 46.429688 120.984375 46.386719 L 120.140625 45.546875 C 120.046875 45.453125 120.046875 45.3125 120.140625 45.21875 C 120.234375 45.125 120.375 45.125 120.46875 45.21875 L 121.3125 46.058594 C 121.40625 46.148438 121.40625 46.292969 121.3125 46.386719 C 121.261719 46.433594 121.207031 46.453125 121.144531 46.453125 Z M 121.144531 46.453125 " fill-opacity="1" fill-rule="nonzero"/><path fill="#6644a8" d="M 123.0625 44.539062 C 123.003906 44.539062 122.945312 44.515625 122.902344 44.472656 L 122.0625 43.632812 C 121.96875 43.539062 121.96875 43.398438 122.0625 43.304688 C 122.152344 43.210938 122.296875 43.210938 122.390625 43.304688 L 123.230469 44.144531 C 123.324219 44.234375 123.324219 44.378906 123.230469 44.472656 C 123.183594 44.519531 123.121094 44.539062 123.0625 44.539062 Z M 123.0625 44.539062 " fill-opacity="1" fill-rule="nonzero"/><path fill="#6644a8" d="M 120.300781 44.539062 C 120.238281 44.539062 120.183594 44.515625 120.140625 44.472656 C 120.046875 44.378906 120.046875 44.234375 120.140625 44.144531 L 120.984375 43.304688 C 121.074219 43.210938 121.21875 43.210938 121.3125 43.304688 C 121.40625 43.398438 121.40625 43.539062 121.3125 43.632812 L 120.46875 44.472656 C 120.417969 44.519531 120.363281 44.539062 120.300781 44.539062 Z M 120.300781 44.539062 " fill-opacity="1" fill-rule="nonzero"/><path fill="#6644a8" d="M 122.222656 46.453125 C 122.160156 46.453125 122.105469 46.429688 122.0625 46.386719 C 121.96875 46.292969 121.96875 46.148438 122.0625 46.058594 L 122.902344 45.21875 C 122.996094 45.125 123.136719 45.125 123.230469 45.21875 C 123.324219 45.3125 123.324219 45.453125 123.230469 45.546875 L 122.390625 46.386719 C 122.339844 46.433594 122.277344 46.453125 122.222656 46.453125 Z M 122.222656 46.453125 " fill-opacity="1" fill-rule="nonzero"/><path fill="#6644a8" d="M 124.917969 84.011719 C 124.855469 84.011719 124.796875 83.984375 124.753906 83.941406 L 123.914062 83.101562 C 123.820312 83.011719 123.820312 82.867188 123.914062 82.773438 C 124.003906 82.683594 124.148438 82.683594 124.242188 82.773438 L 125.082031 83.613281 C 125.175781 83.707031 125.175781 83.847656 125.082031 83.941406 C 125.035156 83.992188 124.972656 84.011719 124.917969 84.011719 Z M 124.917969 84.011719 " fill-opacity="1" fill-rule="nonzero"/><g clip-path="url(#6b5bc571f3)"><path fill="#6644a8" d="M 126.835938 82.097656 C 126.773438 82.097656 126.71875 82.070312 126.675781 82.027344 L 125.832031 81.1875 C 125.738281 81.097656 125.738281 80.953125 125.832031 80.859375 C 125.925781 80.769531 126.066406 80.769531 126.160156 80.859375 L 127.003906 81.699219 C 127.097656 81.792969 127.097656 81.933594 127.003906 82.027344 C 126.953125 82.078125 126.890625 82.097656 126.835938 82.097656 Z M 126.835938 82.097656 " fill-opacity="1" fill-rule="nonzero"/></g><path fill="#6644a8" d="M 124.074219 82.097656 C 124.011719 82.097656 123.957031 82.070312 123.914062 82.027344 C 123.820312 81.933594 123.820312 81.792969 123.914062 81.699219 L 124.753906 80.859375 C 124.847656 80.769531 124.992188 80.769531 125.082031 80.859375 C 125.175781 80.953125 125.175781 81.097656 125.082031 81.1875 L 124.242188 82.027344 C 124.191406 82.078125 124.128906 82.097656 124.074219 82.097656 Z M 124.074219 82.097656 " fill-opacity="1" fill-rule="nonzero"/><g clip-path="url(#006850ac90)"><path fill="#6644a8" d="M 125.988281 84.011719 C 125.925781 84.011719 125.871094 83.984375 125.828125 83.941406 C 125.734375 83.847656 125.734375 83.707031 125.828125 83.613281 L 126.667969 82.773438 C 126.761719 82.683594 126.90625 82.683594 126.996094 82.773438 C 127.089844 82.867188 127.089844 83.011719 126.996094 83.101562 L 126.15625 83.941406 C 126.113281 83.992188 126.050781 84.011719 125.988281 84.011719 Z M 125.988281 84.011719 " fill-opacity="1" fill-rule="nonzero"/></g><path fill="#000000" d="M 113.667969 44.101562 L 103.199219 44.101562 C 103.066406 44.101562 102.960938 44.207031 102.960938 44.339844 L 102.960938 50.6875 C 102.960938 50.824219 103.066406 50.929688 103.199219 50.929688 L 104.398438 50.929688 L 104.398438 53.535156 C 104.398438 53.640625 104.457031 53.726562 104.550781 53.757812 C 104.582031 53.773438 104.605469 53.773438 104.632812 53.773438 C 104.707031 53.773438 104.773438 53.746094 104.824219 53.6875 L 106.980469 50.933594 L 113.675781 50.933594 C 113.804688 50.933594 113.902344 50.832031 113.902344 50.695312 L 113.902344 44.339844 C 113.898438 44.207031 113.792969 44.101562 113.667969 44.101562 Z M 105.636719 48.199219 C 105.066406 48.199219 104.601562 47.753906 104.601562 47.199219 C 104.601562 46.65625 105.066406 46.210938 105.636719 46.210938 C 106.199219 46.210938 106.65625 46.65625 106.65625 47.199219 C 106.65625 47.75 106.191406 48.199219 105.636719 48.199219 Z M 108.507812 48.199219 C 107.9375 48.199219 107.476562 47.753906 107.476562 47.199219 C 107.476562 46.65625 107.9375 46.210938 108.507812 46.210938 C 109.074219 46.210938 109.539062 46.65625 109.539062 47.199219 C 109.539062 47.75 109.074219 48.199219 108.507812 48.199219 Z M 111.234375 48.199219 C 110.664062 48.199219 110.207031 47.753906 110.207031 47.199219 C 110.207031 46.65625 110.664062 46.210938 111.234375 46.210938 C 111.804688 46.210938 112.257812 46.65625 112.257812 47.199219 C 112.257812 47.75 111.804688 48.199219 111.234375 48.199219 Z M 111.234375 48.199219 " fill-opacity="0.1" fill-rule="nonzero"/><path fill="#6644a8" d="M 112.871094 43.304688 L 102.402344 43.304688 C 102.265625 43.304688 102.160156 43.410156 102.160156 43.542969 L 102.160156 49.890625 C 102.160156 50.027344 102.265625 50.132812 102.402344 50.132812 L 103.597656 50.132812 L 103.597656 52.738281 C 103.597656 52.84375 103.660156 52.929688 103.753906 52.960938 C 103.785156 52.980469 103.808594 52.980469 103.832031 52.980469 C 103.90625 52.980469 103.976562 52.949219 104.023438 52.890625 L 106.179688 50.140625 L 112.875 50.140625 C 113.003906 50.140625 113.105469 50.035156 113.105469 49.898438 L 113.105469 43.542969 C 113.097656 43.410156 112.992188 43.304688 112.871094 43.304688 Z M 104.835938 47.398438 C 104.265625 47.398438 103.800781 46.953125 103.800781 46.398438 C 103.800781 45.855469 104.265625 45.410156 104.835938 45.410156 C 105.398438 45.410156 105.859375 45.855469 105.859375 46.398438 C 105.859375 46.953125 105.394531 47.398438 104.835938 47.398438 Z M 107.710938 47.398438 C 107.140625 47.398438 106.675781 46.953125 106.675781 46.398438 C 106.675781 45.855469 107.140625 45.410156 107.710938 45.410156 C 108.273438 45.410156 108.738281 45.855469 108.738281 46.398438 C 108.730469 46.953125 108.265625 47.398438 107.710938 47.398438 Z M 110.429688 47.398438 C 109.859375 47.398438 109.402344 46.953125 109.402344 46.398438 C 109.402344 45.855469 109.859375 45.410156 110.429688 45.410156 C 111 45.410156 111.449219 45.855469 111.449219 46.398438 C 111.457031 46.953125 111 47.398438 110.429688 47.398438 Z M 110.429688 47.398438 " fill-opacity="1" fill-rule="nonzero"/><path fill="#000000" d="M 54.59375 57.335938 C 54.660156 57.265625 54.660156 57.144531 54.59375 57.078125 C 54.519531 57.003906 54.402344 57.003906 54.332031 57.078125 C 53.714844 57.703125 52.691406 57.703125 52.074219 57.078125 C 52 57.003906 51.878906 57.003906 51.8125 57.078125 C 51.746094 57.152344 51.746094 57.269531 51.8125 57.335938 C 52.195312 57.71875 52.699219 57.910156 53.207031 57.910156 C 53.714844 57.910156 54.210938 57.71875 54.59375 57.335938 Z M 54.59375 57.335938 " fill-opacity="0.1" fill-rule="nonzero"/><path fill="#000000" d="M 57.320312 59.796875 C 55.046875 62.0625 51.347656 62.0625 49.082031 59.796875 C 49.007812 59.722656 48.890625 59.722656 48.820312 59.796875 C 48.746094 59.871094 48.746094 59.988281 48.820312 60.054688 C 50.027344 61.257812 51.613281 61.855469 53.199219 61.855469 C 54.785156 61.855469 56.371094 61.257812 57.578125 60.054688 C 57.648438 59.980469 57.648438 59.863281 57.578125 59.796875 C 57.503906 59.726562 57.394531 59.726562 57.320312 59.796875 Z M 57.320312 59.796875 " fill-opacity="0.1" fill-rule="nonzero"/><path fill="#000000" d="M 50.183594 58.4375 C 50.113281 58.511719 50.113281 58.628906 50.183594 58.695312 C 51.011719 59.523438 52.109375 59.9375 53.199219 59.9375 C 54.289062 59.9375 55.386719 59.523438 56.214844 58.695312 C 56.289062 58.621094 56.289062 58.511719 56.214844 58.4375 C 56.140625 58.363281 56.03125 58.363281 55.957031 58.4375 C 54.433594 59.957031 51.960938 59.957031 50.445312 58.4375 C 50.371094 58.367188 50.25 58.367188 50.183594 58.4375 Z M 50.183594 58.4375 " fill-opacity="0.1" fill-rule="nonzero"/><path fill="#6644a8" d="M 54.300781 56.894531 C 54.371094 56.820312 54.371094 56.703125 54.300781 56.632812 C 54.226562 56.558594 54.109375 56.558594 54.042969 56.632812 C 53.421875 57.257812 52.402344 57.257812 51.78125 56.632812 C 51.707031 56.558594 51.589844 56.558594 51.519531 56.632812 C 51.453125 56.707031 51.453125 56.824219 51.519531 56.894531 C 51.90625 57.277344 52.40625 57.46875 52.914062 57.46875 C 53.417969 57.46875 53.917969 57.277344 54.300781 56.894531 Z M 54.300781 56.894531 " fill-opacity="1" fill-rule="nonzero"/><path fill="#6644a8" d="M 57.035156 59.351562 C 54.761719 61.617188 51.0625 61.617188 48.796875 59.351562 C 48.722656 59.277344 48.605469 59.277344 48.535156 59.351562 C 48.460938 59.425781 48.460938 59.542969 48.535156 59.609375 C 49.742188 60.8125 51.328125 61.414062 52.914062 61.414062 C 54.5 61.414062 56.085938 60.8125 57.292969 59.609375 C 57.363281 59.535156 57.363281 59.417969 57.292969 59.351562 C 57.21875 59.28125 57.101562 59.28125 57.035156 59.351562 Z M 57.035156 59.351562 " fill-opacity="1" fill-rule="nonzero"/><path fill="#6644a8" d="M 49.898438 58 C 49.832031 58.074219 49.832031 58.191406 49.898438 58.257812 C 50.726562 59.085938 51.824219 59.5 52.914062 59.5 C 54.003906 59.5 55.101562 59.085938 55.929688 58.257812 C 56.003906 58.183594 56.003906 58.074219 55.929688 58 C 55.855469 57.925781 55.746094 57.925781 55.671875 58 C 54.148438 59.515625 51.675781 59.515625 50.160156 58 C 50.085938 57.925781 49.964844 57.925781 49.898438 58 Z M 49.898438 58 " fill-opacity="1" fill-rule="nonzero"/><path fill="#6644a8" d="M 50.398438 69.390625 C 50.398438 69.542969 50.347656 69.675781 50.238281 69.78125 C 50.128906 69.890625 49.996094 69.945312 49.84375 69.945312 C 49.6875 69.945312 49.558594 69.890625 49.449219 69.78125 C 49.339844 69.675781 49.285156 69.542969 49.285156 69.390625 C 49.285156 69.234375 49.339844 69.105469 49.449219 68.996094 C 49.558594 68.886719 49.6875 68.835938 49.84375 68.835938 C 49.996094 68.835938 50.128906 68.886719 50.238281 68.996094 C 50.347656 69.105469 50.398438 69.234375 50.398438 69.390625 Z M 50.398438 69.390625 " fill-opacity="1" fill-rule="nonzero"/><path fill="#6644a8" d="M 50.398438 71.488281 C 50.398438 71.640625 50.347656 71.773438 50.238281 71.882812 C 50.128906 71.992188 49.996094 72.042969 49.84375 72.042969 C 49.6875 72.042969 49.558594 71.992188 49.449219 71.882812 C 49.339844 71.773438 49.285156 71.640625 49.285156 71.488281 C 49.285156 71.335938 49.339844 71.203125 49.449219 71.097656 C 49.558594 70.988281 49.6875 70.933594 49.84375 70.933594 C 49.996094 70.933594 50.128906 70.988281 50.238281 71.097656 C 50.347656 71.203125 50.398438 71.335938 50.398438 71.488281 Z M 50.398438 71.488281 " fill-opacity="1" fill-rule="nonzero"/><path fill="#6644a8" d="M 50.398438 73.589844 C 50.398438 73.742188 50.347656 73.871094 50.238281 73.980469 C 50.128906 74.089844 49.996094 74.144531 49.84375 74.144531 C 49.6875 74.144531 49.558594 74.089844 49.449219 73.980469 C 49.339844 73.871094 49.285156 73.742188 49.285156 73.589844 C 49.285156 73.433594 49.339844 73.304688 49.449219 73.195312 C 49.558594 73.085938 49.6875 73.03125 49.84375 73.03125 C 49.996094 73.03125 50.128906 73.085938 50.238281 73.195312 C 50.347656 73.304688 50.398438 73.433594 50.398438 73.589844 Z M 50.398438 73.589844 " fill-opacity="1" fill-rule="nonzero"/><path fill="#6644a8" d="M 119.898438 51.816406 C 119.898438 51.972656 119.84375 52.101562 119.734375 52.210938 C 119.628906 52.320312 119.496094 52.375 119.34375 52.375 C 119.1875 52.375 119.054688 52.320312 118.949219 52.210938 C 118.839844 52.101562 118.785156 51.972656 118.785156 51.816406 C 118.785156 51.664062 118.839844 51.535156 118.949219 51.425781 C 119.054688 51.316406 119.1875 51.261719 119.34375 51.261719 C 119.496094 51.261719 119.628906 51.316406 119.734375 51.425781 C 119.84375 51.535156 119.898438 51.664062 119.898438 51.816406 Z M 119.898438 51.816406 " fill-opacity="1" fill-rule="nonzero"/><path fill="#6644a8" d="M 119.898438 53.917969 C 119.898438 54.070312 119.84375 54.203125 119.734375 54.308594 C 119.628906 54.417969 119.496094 54.472656 119.34375 54.472656 C 119.1875 54.472656 119.054688 54.417969 118.949219 54.308594 C 118.839844 54.203125 118.785156 54.070312 118.785156 53.917969 C 118.785156 53.765625 118.839844 53.632812 118.949219 53.523438 C 119.054688 53.414062 119.1875 53.363281 119.34375 53.363281 C 119.496094 53.363281 119.628906 53.414062 119.734375 53.523438 C 119.84375 53.632812 119.898438 53.765625 119.898438 53.917969 Z M 119.898438 53.917969 " fill-opacity="1" fill-rule="nonzero"/><path fill="#6644a8" d="M 119.898438 56.015625 C 119.898438 56.171875 119.84375 56.300781 119.734375 56.410156 C 119.628906 56.519531 119.496094 56.570312 119.34375 56.570312 C 119.1875 56.570312 119.054688 56.519531 118.949219 56.410156 C 118.839844 56.300781 118.785156 56.171875 118.785156 56.015625 C 118.785156 55.863281 118.839844 55.730469 118.949219 55.625 C 119.054688 55.515625 119.1875 55.460938 119.34375 55.460938 C 119.496094 55.460938 119.628906 55.515625 119.734375 55.625 C 119.84375 55.730469 119.898438 55.863281 119.898438 56.015625 Z M 119.898438 56.015625 " fill-opacity="1" fill-rule="nonzero"/><path fill="#6644a8" d="M 57.628906 44.914062 C 57.460938 44.914062 57.320312 44.78125 57.320312 44.605469 L 57.320312 37.902344 C 57.320312 37.734375 57.453125 37.59375 57.628906 37.59375 C 57.800781 37.59375 57.9375 37.730469 57.9375 37.902344 L 57.9375 44.605469 C 57.9375 44.773438 57.800781 44.914062 57.628906 44.914062 Z M 57.628906 44.914062 " fill-opacity="1" fill-rule="nonzero"/><path fill="#6644a8" d="M 125.777344 77.792969 C 125.632812 77.792969 125.523438 77.675781 125.523438 77.535156 L 125.523438 71.945312 C 125.523438 71.804688 125.640625 71.691406 125.777344 71.691406 C 125.917969 71.691406 126.039062 71.808594 126.039062 71.945312 L 126.039062 77.535156 C 126.039062 77.679688 125.917969 77.792969 125.777344 77.792969 Z M 125.777344 77.792969 " fill-opacity="1" fill-rule="nonzero"/><path fill="#6644a8" d="M 125.777344 71.308594 C 125.632812 71.308594 125.523438 71.191406 125.523438 71.050781 L 125.523438 69.019531 C 125.523438 68.878906 125.640625 68.765625 125.777344 68.765625 C 125.917969 68.765625 126.039062 68.882812 126.039062 69.019531 L 126.039062 71.050781 C 126.039062 71.199219 125.917969 71.308594 125.777344 71.308594 Z M 125.777344 71.308594 " fill-opacity="1" fill-rule="nonzero"/><path fill="#6644a8" d="M 100.363281 56.84375 C 100.363281 56.996094 100.308594 57.128906 100.199219 57.238281 C 100.09375 57.34375 99.960938 57.398438 99.808594 57.398438 C 99.652344 57.398438 99.523438 57.34375 99.414062 57.238281 C 99.304688 57.128906 99.25 56.996094 99.25 56.84375 C 99.25 56.691406 99.304688 56.558594 99.414062 56.449219 C 99.523438 56.34375 99.652344 56.289062 99.808594 56.289062 C 99.960938 56.289062 100.09375 56.34375 100.199219 56.449219 C 100.308594 56.558594 100.363281 56.691406 100.363281 56.84375 Z M 100.363281 56.84375 " fill-opacity="1" fill-rule="nonzero"/><path fill="#6644a8" d="M 100.363281 54.746094 C 100.363281 54.898438 100.308594 55.027344 100.199219 55.136719 C 100.09375 55.246094 99.960938 55.300781 99.808594 55.300781 C 99.652344 55.300781 99.523438 55.246094 99.414062 55.136719 C 99.304688 55.027344 99.25 54.898438 99.25 54.746094 C 99.25 54.589844 99.304688 54.460938 99.414062 54.351562 C 99.523438 54.242188 99.652344 54.1875 99.808594 54.1875 C 99.960938 54.1875 100.09375 54.242188 100.199219 54.351562 C 100.308594 54.460938 100.363281 54.589844 100.363281 54.746094 Z M 100.363281 54.746094 " fill-opacity="1" fill-rule="nonzero"/><path fill="#6644a8" d="M 100.363281 52.644531 C 100.363281 52.800781 100.308594 52.929688 100.199219 53.039062 C 100.09375 53.148438 99.960938 53.199219 99.808594 53.199219 C 99.652344 53.199219 99.523438 53.148438 99.414062 53.039062 C 99.304688 52.929688 99.25 52.800781 99.25 52.644531 C 99.25 52.492188 99.304688 52.359375 99.414062 52.253906 C 99.523438 52.144531 99.652344 52.089844 99.808594 52.089844 C 99.960938 52.089844 100.09375 52.144531 100.199219 52.253906 C 100.308594 52.359375 100.363281 52.492188 100.363281 52.644531 Z M 100.363281 52.644531 " fill-opacity="1" fill-rule="nonzero"/><path fill="#6644a8" d="M 84.273438 44.539062 C 84.273438 44.691406 84.21875 44.824219 84.109375 44.933594 C 84 45.039062 83.871094 45.09375 83.714844 45.09375 C 83.5625 45.09375 83.429688 45.039062 83.320312 44.933594 C 83.210938 44.824219 83.160156 44.691406 83.160156 44.539062 C 83.160156 44.386719 83.210938 44.253906 83.320312 44.144531 C 83.429688 44.039062 83.5625 43.984375 83.714844 43.984375 C 83.871094 43.984375 84 44.039062 84.109375 44.144531 C 84.21875 44.253906 84.273438 44.386719 84.273438 44.539062 Z M 84.273438 44.539062 " fill-opacity="1" fill-rule="nonzero"/><path fill="#6644a8" d="M 82.167969 44.539062 C 82.167969 44.691406 82.113281 44.824219 82.003906 44.933594 C 81.894531 45.039062 81.765625 45.09375 81.609375 45.09375 C 81.457031 45.09375 81.324219 45.039062 81.214844 44.933594 C 81.105469 44.824219 81.050781 44.691406 81.050781 44.539062 C 81.050781 44.386719 81.105469 44.253906 81.214844 44.144531 C 81.324219 44.039062 81.457031 43.984375 81.609375 43.984375 C 81.765625 43.984375 81.894531 44.039062 82.003906 44.144531 C 82.113281 44.253906 82.167969 44.386719 82.167969 44.539062 Z M 82.167969 44.539062 " fill-opacity="1" fill-rule="nonzero"/><path fill="#6644a8" d="M 80.0625 44.539062 C 80.0625 44.691406 80.007812 44.824219 79.898438 44.933594 C 79.789062 45.039062 79.65625 45.09375 79.503906 45.09375 C 79.351562 45.09375 79.21875 45.039062 79.109375 44.933594 C 79 44.824219 78.945312 44.691406 78.945312 44.539062 C 78.945312 44.386719 79 44.253906 79.109375 44.144531 C 79.21875 44.039062 79.351562 43.984375 79.503906 43.984375 C 79.65625 43.984375 79.789062 44.039062 79.898438 44.144531 C 80.007812 44.253906 80.0625 44.386719 80.0625 44.539062 Z M 80.0625 44.539062 " fill-opacity="1" fill-rule="nonzero"/><path fill="#6644a8" d="M 108.652344 99.691406 C 108.496094 99.691406 108.371094 99.570312 108.371094 99.414062 L 108.371094 82.097656 C 108.371094 81.941406 108.496094 81.816406 108.652344 81.816406 C 108.804688 81.816406 108.929688 81.941406 108.929688 82.097656 L 108.929688 99.410156 C 108.929688 99.570312 108.804688 99.691406 108.652344 99.691406 Z M 108.652344 99.691406 " fill-opacity="1" fill-rule="nonzero"/><path fill="#6644a8" d="M 111.46875 87.382812 C 111.316406 87.382812 111.191406 87.257812 111.191406 87.101562 L 111.191406 84.566406 C 111.191406 84.410156 111.316406 84.289062 111.46875 84.289062 C 111.625 84.289062 111.75 84.410156 111.75 84.566406 L 111.75 87.101562 C 111.75 87.257812 111.625 87.382812 111.46875 87.382812 Z M 111.46875 87.382812 " fill-opacity="1" fill-rule="nonzero"/><path fill="#6644a8" d="M 111.46875 94.679688 C 111.316406 94.679688 111.191406 94.554688 111.191406 94.402344 L 111.191406 88.867188 C 111.191406 88.714844 111.316406 88.589844 111.46875 88.589844 C 111.625 88.589844 111.75 88.714844 111.75 88.867188 L 111.75 94.402344 C 111.75 94.554688 111.625 94.679688 111.46875 94.679688 Z M 111.46875 94.679688 " fill-opacity="1" fill-rule="nonzero"/><path fill="#6644a8" d="M 108.644531 80.527344 C 108.125 80.527344 107.703125 80.109375 107.703125 79.589844 C 107.703125 79.070312 108.125 78.644531 108.644531 78.644531 C 109.164062 78.644531 109.59375 79.070312 109.59375 79.589844 C 109.59375 80.101562 109.171875 80.527344 108.644531 80.527344 Z M 108.644531 80.527344 " fill-opacity="1" fill-rule="nonzero"/><path fill="#6644a8" d="M 111.46875 97.828125 C 110.949219 97.828125 110.527344 97.40625 110.527344 96.890625 C 110.527344 96.371094 110.949219 95.945312 111.46875 95.945312 C 111.988281 95.945312 112.417969 96.371094 112.417969 96.890625 C 112.417969 97.402344 111.988281 97.828125 111.46875 97.828125 Z M 111.46875 97.828125 " fill-opacity="1" fill-rule="nonzero"/><path fill="#000000" d="M 121.359375 89.320312 C 121.421875 89.257812 121.421875 89.160156 121.359375 89.105469 C 121.300781 89.042969 121.199219 89.042969 121.144531 89.105469 C 120.617188 89.628906 119.761719 89.628906 119.242188 89.105469 C 119.179688 89.042969 119.082031 89.042969 119.027344 89.105469 C 118.964844 89.164062 118.964844 89.265625 119.027344 89.320312 C 119.347656 89.640625 119.773438 89.800781 120.195312 89.800781 C 120.613281 89.800781 121.039062 89.640625 121.359375 89.320312 Z M 121.359375 89.320312 " fill-opacity="0.1" fill-rule="nonzero"/><path fill="#000000" d="M 123.660156 91.386719 C 121.746094 93.296875 118.636719 93.296875 116.726562 91.386719 C 116.667969 91.328125 116.566406 91.328125 116.511719 91.386719 C 116.449219 91.449219 116.449219 91.546875 116.511719 91.605469 C 117.527344 92.617188 118.863281 93.125 120.195312 93.125 C 121.527344 93.125 122.867188 92.617188 123.882812 91.605469 C 123.945312 91.542969 123.945312 91.445312 123.882812 91.386719 C 123.8125 91.328125 123.714844 91.328125 123.660156 91.386719 Z M 123.660156 91.386719 " fill-opacity="0.1" fill-rule="nonzero"/><path fill="#000000" d="M 117.652344 90.246094 C 117.589844 90.308594 117.589844 90.40625 117.652344 90.460938 C 118.351562 91.160156 119.273438 91.503906 120.191406 91.503906 C 121.105469 91.503906 122.03125 91.160156 122.730469 90.460938 C 122.792969 90.398438 122.792969 90.300781 122.730469 90.246094 C 122.667969 90.191406 122.570312 90.183594 122.511719 90.246094 C 121.230469 91.523438 119.148438 91.523438 117.875 90.246094 C 117.8125 90.183594 117.714844 90.183594 117.652344 90.246094 Z M 117.652344 90.246094 " fill-opacity="0.1" fill-rule="nonzero"/><path fill="#6644a8" d="M 121.121094 88.941406 C 121.179688 88.882812 121.179688 88.78125 121.121094 88.726562 C 121.058594 88.664062 120.957031 88.664062 120.902344 88.726562 C 120.375 89.25 119.519531 89.25 119 88.726562 C 118.9375 88.664062 118.839844 88.664062 118.785156 88.726562 C 118.722656 88.789062 118.722656 88.886719 118.785156 88.941406 C 119.105469 89.265625 119.535156 89.425781 119.953125 89.425781 C 120.371094 89.425781 120.796875 89.265625 121.121094 88.941406 Z M 121.121094 88.941406 " fill-opacity="1" fill-rule="nonzero"/><path fill="#6644a8" d="M 123.417969 91.011719 C 121.503906 92.917969 118.394531 92.917969 116.488281 91.011719 C 116.425781 90.949219 116.324219 90.949219 116.269531 91.011719 C 116.214844 91.074219 116.207031 91.171875 116.269531 91.226562 C 117.285156 92.238281 118.625 92.746094 119.953125 92.746094 C 121.285156 92.746094 122.625 92.238281 123.640625 91.226562 C 123.703125 91.164062 123.703125 91.066406 123.640625 91.011719 C 123.570312 90.957031 123.472656 90.957031 123.417969 91.011719 Z M 123.417969 91.011719 " fill-opacity="1" fill-rule="nonzero"/><path fill="#6644a8" d="M 117.410156 89.871094 C 117.347656 89.929688 117.347656 90.03125 117.410156 90.085938 C 118.109375 90.78125 119.03125 91.128906 119.949219 91.128906 C 120.867188 91.128906 121.789062 90.78125 122.488281 90.085938 C 122.550781 90.023438 122.550781 89.925781 122.488281 89.871094 C 122.425781 89.8125 122.328125 89.808594 122.269531 89.871094 C 120.988281 91.148438 118.910156 91.148438 117.632812 89.871094 C 117.570312 89.8125 117.472656 89.8125 117.410156 89.871094 Z M 117.410156 89.871094 " fill-opacity="1" fill-rule="nonzero"/><g clip-path="url(#85f1fdf88f)"><path fill="#6644a8" d="M 47.203125 48.738281 C 46.683594 48.738281 46.261719 48.316406 46.261719 47.796875 C 46.261719 47.28125 46.683594 46.855469 47.203125 46.855469 C 47.722656 46.855469 48.152344 47.28125 48.152344 47.796875 C 48.152344 48.316406 47.730469 48.738281 47.203125 48.738281 Z M 47.203125 48.738281 " fill-opacity="1" fill-rule="nonzero"/></g><path fill="#6644a8" d="M 52.554688 36.777344 C 51.8125 36.777344 51.207031 36.171875 51.207031 35.433594 C 51.207031 34.683594 51.8125 34.078125 52.554688 34.078125 C 53.304688 34.078125 53.910156 34.683594 53.910156 35.433594 C 53.910156 36.171875 53.296875 36.777344 52.554688 36.777344 Z M 52.554688 36.777344 " fill-opacity="1" fill-rule="nonzero"/><path fill="#000000" d="M 122.699219 73.953125 C 122.699219 75.0625 121.792969 75.957031 120.6875 75.957031 L 117.855469 75.957031 L 117.855469 74.636719 L 119.589844 74.636719 L 116.226562 71.316406 L 112.863281 74.636719 L 114.597656 74.636719 L 114.597656 75.957031 L 112.289062 75.957031 C 110.894531 75.957031 109.753906 74.824219 109.753906 73.433594 C 109.753906 72.070312 110.839844 70.953125 112.1875 70.894531 C 112.542969 69.464844 113.835938 68.414062 115.371094 68.414062 C 116.90625 68.414062 118.203125 69.464844 118.566406 70.894531 L 118.65625 70.894531 C 119.507812 70.894531 120.257812 71.316406 120.722656 71.945312 C 121.8125 71.964844 122.699219 72.847656 122.699219 73.953125 Z M 122.699219 73.953125 " fill-opacity="0.1" fill-rule="nonzero"/><path fill="#6644a8" d="M 121.597656 72.847656 C 121.597656 73.957031 120.691406 74.855469 119.582031 74.855469 L 116.753906 74.855469 L 116.753906 73.53125 L 118.488281 73.53125 L 115.125 70.210938 L 111.761719 73.53125 L 113.496094 73.53125 L 113.496094 74.855469 L 111.183594 74.855469 C 109.792969 74.855469 108.652344 73.71875 108.652344 72.328125 C 108.652344 70.964844 109.734375 69.847656 111.085938 69.789062 C 111.4375 68.359375 112.734375 67.308594 114.269531 67.308594 C 115.804688 67.308594 117.101562 68.359375 117.464844 69.789062 L 117.550781 69.789062 C 118.40625 69.789062 119.15625 70.210938 119.621094 70.839844 C 120.710938 70.867188 121.597656 71.75 121.597656 72.847656 Z M 121.597656 72.847656 " fill-opacity="1" fill-rule="nonzero"/><path fill="#000000" d="M 71.84375 48.726562 L 66.925781 48.726562 C 66.824219 48.199219 66.429688 47.792969 65.890625 47.695312 L 65.890625 46.25 L 70.894531 46.25 C 71.019531 46.25 71.117188 46.148438 71.117188 46.027344 L 71.117188 39.476562 C 71.117188 39.359375 71.019531 39.261719 70.894531 39.261719 L 66.707031 39.261719 L 66.707031 37.566406 C 66.707031 37.449219 66.601562 37.351562 66.484375 37.351562 L 60.191406 37.351562 C 60.070312 37.351562 59.96875 37.449219 59.96875 37.566406 L 59.96875 46.019531 C 59.96875 46.144531 60.070312 46.242188 60.191406 46.242188 L 65.457031 46.242188 L 65.457031 47.695312 C 64.929688 47.78125 64.527344 48.1875 64.429688 48.71875 L 59.816406 48.71875 C 59.695312 48.71875 59.597656 48.816406 59.597656 48.941406 C 59.597656 49.058594 59.695312 49.15625 59.816406 49.15625 L 64.429688 49.15625 C 64.527344 49.6875 64.925781 50.089844 65.457031 50.1875 L 65.457031 52.855469 C 64.875 52.960938 64.429688 53.449219 64.429688 54.054688 C 64.429688 54.746094 64.984375 55.300781 65.679688 55.300781 C 66.375 55.300781 66.929688 54.746094 66.929688 54.054688 C 66.929688 53.449219 66.484375 52.953125 65.902344 52.855469 L 65.902344 50.1875 C 66.429688 50.089844 66.832031 49.695312 66.929688 49.15625 L 71.847656 49.15625 C 71.964844 49.15625 72.066406 49.058594 72.066406 48.941406 C 72.058594 48.816406 71.964844 48.726562 71.84375 48.726562 Z M 61.925781 41.253906 L 68.960938 41.253906 C 69.082031 41.253906 69.183594 41.359375 69.183594 41.476562 C 69.183594 41.59375 69.082031 41.699219 68.960938 41.699219 L 61.925781 41.699219 C 61.808594 41.699219 61.703125 41.59375 61.703125 41.476562 C 61.703125 41.359375 61.800781 41.253906 61.925781 41.253906 Z M 61.925781 42.691406 L 68.960938 42.691406 C 69.082031 42.691406 69.183594 42.792969 69.183594 42.914062 C 69.183594 43.03125 69.082031 43.136719 68.960938 43.136719 L 61.925781 43.136719 C 61.808594 43.136719 61.703125 43.03125 61.703125 42.914062 C 61.703125 42.792969 61.800781 42.691406 61.925781 42.691406 Z M 61.925781 44.574219 C 61.808594 44.574219 61.703125 44.472656 61.703125 44.355469 C 61.703125 44.234375 61.808594 44.132812 61.925781 44.132812 L 68.960938 44.132812 C 69.082031 44.132812 69.183594 44.234375 69.183594 44.355469 C 69.183594 44.472656 69.082031 44.574219 68.960938 44.574219 Z M 61.925781 44.574219 " fill-opacity="0.1" fill-rule="nonzero"/><path fill="#6644a8" d="M 71.097656 47.984375 L 66.179688 47.984375 C 66.082031 47.460938 65.6875 47.050781 65.148438 46.953125 L 65.148438 45.507812 L 70.152344 45.507812 C 70.277344 45.507812 70.375 45.410156 70.375 45.285156 L 70.375 38.734375 C 70.375 38.617188 70.277344 38.519531 70.152344 38.519531 L 65.964844 38.519531 L 65.964844 36.828125 C 65.964844 36.710938 65.859375 36.609375 65.742188 36.609375 L 59.449219 36.609375 C 59.324219 36.609375 59.226562 36.710938 59.226562 36.828125 L 59.226562 45.28125 C 59.226562 45.402344 59.324219 45.5 59.449219 45.5 L 64.714844 45.5 L 64.714844 46.953125 C 64.1875 47.039062 63.785156 47.445312 63.683594 47.976562 L 59.070312 47.976562 C 58.953125 47.976562 58.855469 48.078125 58.855469 48.199219 C 58.855469 48.316406 58.953125 48.417969 59.070312 48.417969 L 63.683594 48.417969 C 63.785156 48.945312 64.179688 49.347656 64.714844 49.445312 L 64.714844 52.113281 C 64.132812 52.21875 63.683594 52.707031 63.683594 53.3125 C 63.683594 54.003906 64.242188 54.558594 64.9375 54.558594 C 65.628906 54.558594 66.1875 54.003906 66.1875 53.3125 C 66.1875 52.707031 65.742188 52.214844 65.160156 52.113281 L 65.160156 49.445312 C 65.6875 49.347656 66.089844 48.953125 66.1875 48.417969 L 71.105469 48.417969 C 71.222656 48.417969 71.324219 48.316406 71.324219 48.199219 C 71.316406 48.078125 71.222656 47.984375 71.097656 47.984375 Z M 61.183594 40.511719 L 68.21875 40.511719 C 68.335938 40.511719 68.441406 40.617188 68.441406 40.734375 C 68.441406 40.851562 68.335938 40.957031 68.21875 40.957031 L 61.183594 40.957031 C 61.066406 40.957031 60.960938 40.851562 60.960938 40.734375 C 60.960938 40.617188 61.058594 40.511719 61.183594 40.511719 Z M 61.183594 41.953125 L 68.21875 41.953125 C 68.335938 41.953125 68.441406 42.050781 68.441406 42.175781 C 68.441406 42.292969 68.335938 42.394531 68.21875 42.394531 L 61.183594 42.394531 C 61.066406 42.394531 60.960938 42.292969 60.960938 42.175781 C 60.960938 42.050781 61.058594 41.953125 61.183594 41.953125 Z M 61.183594 43.835938 C 61.066406 43.835938 60.960938 43.730469 60.960938 43.613281 C 60.960938 43.496094 61.066406 43.390625 61.183594 43.390625 L 68.21875 43.390625 C 68.335938 43.390625 68.441406 43.496094 68.441406 43.613281 C 68.441406 43.730469 68.335938 43.835938 68.21875 43.835938 Z M 61.183594 43.835938 " fill-opacity="1" fill-rule="nonzero"/><path fill="#6644a8" d="M 51.410156 90.449219 L 53.164062 92.695312 L 51.855469 92.695312 L 50.109375 90.449219 L 51.855469 88.207031 L 53.164062 88.207031 Z M 51.410156 90.449219 " fill-opacity="1" fill-rule="nonzero"/><path fill="#6644a8" d="M 58.558594 90.449219 L 56.804688 92.695312 L 58.109375 92.695312 L 59.863281 90.449219 L 58.109375 88.207031 L 56.804688 88.207031 Z M 58.558594 90.449219 " fill-opacity="1" fill-rule="nonzero"/><path fill="#6644a8" d="M 54.433594 93.820312 L 57.015625 86.71875 L 56.125 86.71875 L 53.546875 93.820312 Z M 54.433594 93.820312 " fill-opacity="1" fill-rule="nonzero"/><path fill="#000000" d="M 106.335938 77.179688 C 106.335938 79.773438 104.898438 82.039062 102.78125 83.238281 L 102.78125 85.226562 C 102.78125 85.738281 102.363281 86.152344 101.851562 86.152344 L 101.292969 86.152344 L 101.292969 95.414062 C 101.292969 95.539062 101.242188 95.65625 101.15625 95.742188 L 99.675781 97.210938 C 99.585938 97.304688 99.464844 97.347656 99.347656 97.347656 C 99.230469 97.347656 99.113281 97.304688 99.019531 97.214844 L 96.296875 94.542969 C 96.207031 94.457031 96.160156 94.339844 96.160156 94.214844 L 96.160156 93.679688 C 96.160156 93.554688 96.203125 93.4375 96.296875 93.351562 L 96.492188 93.152344 L 74.585938 93.152344 C 73.144531 93.152344 71.972656 91.988281 71.972656 90.546875 L 71.972656 67.128906 C 71.972656 67.125 71.980469 67.113281 71.980469 67.105469 C 71.984375 67.0625 71.992188 67.019531 72.003906 66.976562 C 72.011719 66.964844 72.015625 66.957031 72.015625 66.945312 C 72.039062 66.894531 72.066406 66.847656 72.109375 66.808594 L 80.527344 58.289062 C 80.542969 58.269531 80.574219 58.25 80.601562 58.234375 C 80.617188 58.21875 80.636719 58.207031 80.65625 58.195312 C 80.679688 58.183594 80.707031 58.171875 80.738281 58.164062 C 80.761719 58.160156 80.785156 58.152344 80.8125 58.152344 C 80.828125 58.148438 80.84375 58.140625 80.859375 58.140625 L 97.199219 58.140625 C 98.644531 58.140625 99.8125 59.308594 99.8125 60.738281 L 99.8125 70.234375 C 103.449219 70.46875 106.335938 73.496094 106.335938 77.179688 Z M 106.335938 77.179688 " fill-opacity="0.1" fill-rule="nonzero"/><path fill="#ffffff" d="M 98.117188 71.910156 C 98.691406 71.910156 99.164062 72.378906 99.164062 72.953125 C 99.164062 73.527344 98.691406 73.996094 98.117188 73.996094 C 97.539062 73.996094 97.070312 73.527344 97.070312 72.953125 C 97.070312 72.378906 97.539062 71.910156 98.117188 71.910156 Z M 98.117188 71.910156 " fill-opacity="1" fill-rule="nonzero"/><path fill="#aa96f3" d="M 84.386719 63.765625 C 84.386719 63.992188 84.359375 64.210938 84.304688 64.421875 C 84.253906 64.632812 84.175781 64.816406 84.078125 64.980469 C 83.984375 65.140625 83.871094 65.265625 83.742188 65.351562 C 83.613281 65.4375 83.480469 65.480469 83.34375 65.480469 C 83.207031 65.480469 83.074219 65.4375 82.945312 65.351562 C 82.820312 65.265625 82.707031 65.140625 82.609375 64.980469 C 82.511719 64.816406 82.4375 64.632812 82.382812 64.421875 C 82.332031 64.210938 82.304688 63.992188 82.304688 63.765625 C 82.304688 63.539062 82.332031 63.320312 82.382812 63.109375 C 82.4375 62.898438 82.511719 62.710938 82.609375 62.550781 C 82.707031 62.390625 82.820312 62.265625 82.945312 62.179688 C 83.074219 62.09375 83.207031 62.046875 83.34375 62.046875 C 83.480469 62.046875 83.613281 62.09375 83.742188 62.179688 C 83.871094 62.265625 83.984375 62.390625 84.078125 62.550781 C 84.175781 62.710938 84.253906 62.898438 84.304688 63.109375 C 84.359375 63.320312 84.386719 63.539062 84.386719 63.765625 Z M 84.386719 63.765625 " fill-opacity="1" fill-rule="nonzero"/><path fill="#aa96f3" d="M 83.34375 72.839844 C 82.785156 72.839844 82.304688 72.039062 82.304688 71.125 C 82.304688 70.210938 82.792969 69.40625 83.34375 69.40625 C 83.90625 69.40625 84.386719 70.191406 84.386719 71.125 C 84.386719 72.058594 83.90625 72.839844 83.34375 72.839844 Z M 83.34375 72.839844 " fill-opacity="1" fill-rule="nonzero"/><path fill="#ffcc33" d="M 92.058594 75.945312 C 92.058594 79.273438 94.777344 81.984375 98.117188 81.984375 C 101.453125 81.984375 104.171875 79.273438 104.171875 75.945312 C 104.171875 72.617188 101.453125 69.910156 98.117188 69.910156 C 94.773438 69.910156 92.058594 72.617188 92.058594 75.945312 Z M 96.140625 72.953125 C 96.140625 71.867188 97.027344 70.984375 98.117188 70.984375 C 99.207031 70.984375 100.09375 71.867188 100.09375 72.953125 C 100.09375 74.039062 99.207031 74.921875 98.117188 74.921875 C 97.027344 74.914062 96.140625 74.03125 96.140625 72.953125 Z M 96.140625 72.953125 " fill-opacity="1" fill-rule="nonzero"/><path fill="#ffcc33" d="M 98.117188 82.910156 C 98.996094 82.910156 99.839844 82.738281 100.617188 82.441406 L 100.617188 83.996094 L 99.609375 83.996094 C 99.601562 83.996094 99.601562 83.996094 99.597656 83.996094 L 96.308594 83.996094 C 96.308594 83.996094 96.308594 83.996094 96.300781 83.996094 L 95.609375 83.996094 L 95.609375 82.449219 C 96.394531 82.738281 97.230469 82.910156 98.117188 82.910156 Z M 98.117188 82.910156 " fill-opacity="1" fill-rule="nonzero"/><path fill="#aa96f3" d="M 91.804688 63.765625 C 91.804688 62.832031 92.28125 62.046875 92.84375 62.046875 C 93.410156 62.046875 93.886719 62.832031 93.886719 63.765625 C 93.886719 64.699219 93.410156 65.480469 92.84375 65.480469 C 92.28125 65.480469 91.804688 64.699219 91.804688 63.765625 Z M 91.804688 63.765625 " fill-opacity="1" fill-rule="nonzero"/><path fill="#aa96f3" d="M 77.664062 69.378906 C 78.226562 69.378906 78.707031 70.160156 78.707031 71.09375 C 78.707031 72.027344 78.226562 72.808594 77.664062 72.808594 C 77.105469 72.808594 76.625 72.007812 76.625 71.09375 C 76.625 70.179688 77.113281 69.378906 77.664062 69.378906 Z M 77.664062 69.378906 " fill-opacity="1" fill-rule="nonzero"/><path fill="#aa96f3" d="M 83.34375 79.730469 C 82.785156 79.730469 82.304688 78.929688 82.304688 78.015625 C 82.304688 77.101562 82.792969 76.296875 83.34375 76.296875 C 83.90625 76.296875 84.386719 77.082031 84.386719 78.015625 C 84.386719 78.945312 83.90625 79.730469 83.34375 79.730469 Z M 83.34375 79.730469 " fill-opacity="1" fill-rule="nonzero"/><path fill="#dccfff" d="M 79.164062 64.03125 C 79.164062 64.753906 78.574219 65.332031 77.855469 65.332031 L 72.332031 65.414062 L 79.167969 58.5 L 79.167969 64.03125 Z M 79.164062 64.03125 " fill-opacity="1" fill-rule="nonzero"/><path fill="#ffffff" d="M 96.554688 89.074219 L 95.894531 88.414062 L 95.894531 88.148438 L 96.691406 87.066406 C 96.746094 86.984375 96.785156 86.894531 96.785156 86.792969 L 96.785156 84.921875 L 99.144531 84.921875 L 99.144531 93.992188 L 98.121094 95.007812 L 95.863281 92.796875 L 95.863281 92.648438 L 96.5625 91.949219 C 96.742188 91.769531 96.742188 91.472656 96.5625 91.296875 L 95.78125 90.515625 L 96.5625 89.738281 C 96.734375 89.546875 96.734375 89.25 96.554688 89.074219 Z M 96.554688 89.074219 " fill-opacity="1" fill-rule="nonzero"/><path fill="#6644a8" d="M 70.738281 65.894531 L 70.738281 89.3125 C 70.738281 90.753906 71.910156 91.917969 73.355469 91.917969 L 93.167969 91.917969 C 93.421875 91.917969 93.632812 91.710938 93.632812 91.457031 C 93.632812 91.195312 93.421875 90.992188 93.167969 90.992188 L 73.355469 90.992188 C 72.425781 90.992188 71.667969 90.238281 71.667969 89.3125 L 71.667969 66.351562 L 77.863281 66.265625 C 79.089844 66.265625 80.097656 65.265625 80.097656 64.03125 L 80.097656 57.832031 L 95.96875 57.832031 C 96.894531 57.832031 97.652344 58.585938 97.652344 59.503906 L 97.652344 67.328125 C 97.652344 67.582031 97.855469 67.789062 98.117188 67.789062 C 98.371094 67.789062 98.582031 67.582031 98.582031 67.328125 L 98.582031 59.503906 C 98.582031 58.074219 97.410156 56.90625 95.96875 56.90625 L 79.628906 56.90625 C 79.609375 56.90625 79.597656 56.910156 79.578125 56.917969 C 79.554688 56.917969 79.527344 56.925781 79.503906 56.929688 C 79.472656 56.9375 79.449219 56.949219 79.421875 56.960938 C 79.40625 56.972656 79.386719 56.984375 79.367188 57 C 79.34375 57.015625 79.3125 57.035156 79.292969 57.054688 L 70.875 65.574219 C 70.832031 65.609375 70.808594 65.660156 70.785156 65.710938 C 70.785156 65.722656 70.777344 65.726562 70.769531 65.742188 C 70.757812 65.785156 70.753906 65.828125 70.746094 65.871094 C 70.746094 65.875 70.738281 65.890625 70.738281 65.894531 Z M 72.332031 65.417969 L 79.167969 58.503906 L 79.167969 64.03125 C 79.167969 64.753906 78.582031 65.339844 77.855469 65.339844 Z M 72.332031 65.417969 " fill-opacity="1" fill-rule="nonzero"/><path fill="#6644a8" d="M 96.140625 72.953125 C 96.140625 74.039062 97.027344 74.921875 98.117188 74.921875 C 99.207031 74.921875 100.09375 74.039062 100.09375 72.953125 C 100.09375 71.867188 99.207031 70.984375 98.117188 70.984375 C 97.027344 70.984375 96.140625 71.867188 96.140625 72.953125 Z M 97.070312 72.953125 C 97.070312 72.378906 97.539062 71.910156 98.117188 71.910156 C 98.691406 71.910156 99.164062 72.378906 99.164062 72.953125 C 99.164062 73.527344 98.691406 73.996094 98.117188 73.996094 C 97.539062 73.988281 97.070312 73.527344 97.070312 72.953125 Z M 97.070312 72.953125 " fill-opacity="1" fill-rule="nonzero"/><path fill="#6644a8" d="M 91.128906 75.945312 C 91.128906 78.539062 92.566406 80.8125 94.683594 82.003906 L 94.683594 83.992188 C 94.683594 84.503906 95.101562 84.917969 95.613281 84.917969 L 95.847656 84.917969 L 95.847656 86.640625 L 95.050781 87.71875 C 94.996094 87.800781 94.964844 87.894531 94.964844 87.992188 L 94.964844 88.605469 C 94.964844 88.726562 95.007812 88.84375 95.101562 88.929688 L 95.570312 89.398438 L 94.957031 90.011719 C 94.871094 90.097656 94.820312 90.214844 94.820312 90.339844 L 94.820312 90.671875 C 94.820312 90.796875 94.871094 90.914062 94.957031 91 L 95.570312 91.609375 L 95.0625 92.117188 C 94.96875 92.203125 94.925781 92.320312 94.925781 92.445312 L 94.925781 92.980469 C 94.925781 93.105469 94.976562 93.222656 95.0625 93.308594 L 97.789062 95.980469 C 97.878906 96.066406 98 96.109375 98.117188 96.109375 C 98.234375 96.109375 98.351562 96.066406 98.445312 95.976562 L 99.925781 94.507812 C 100.011719 94.417969 100.0625 94.300781 100.0625 94.179688 L 100.0625 84.917969 L 100.617188 84.917969 C 101.132812 84.917969 101.546875 84.503906 101.546875 83.992188 L 101.546875 82.003906 C 103.664062 80.804688 105.101562 78.539062 105.101562 75.945312 C 105.101562 72.261719 102.214844 69.234375 98.582031 69 L 98.582031 68.996094 C 98.425781 68.988281 98.269531 68.980469 98.117188 68.980469 C 94.265625 68.980469 91.128906 72.105469 91.128906 75.945312 Z M 96.554688 89.726562 C 96.734375 89.546875 96.734375 89.25 96.554688 89.074219 L 95.894531 88.414062 L 95.894531 88.148438 L 96.683594 87.066406 C 96.746094 86.984375 96.777344 86.886719 96.777344 86.789062 L 96.777344 84.917969 L 99.132812 84.917969 L 99.132812 93.988281 L 98.109375 95 L 95.855469 92.785156 L 95.855469 92.636719 L 96.554688 91.9375 C 96.734375 91.753906 96.734375 91.460938 96.554688 91.28125 L 95.773438 90.503906 Z M 95.613281 82.441406 C 96.394531 82.738281 97.230469 82.910156 98.117188 82.910156 C 98.996094 82.910156 99.839844 82.738281 100.617188 82.441406 L 100.617188 83.992188 L 99.609375 83.992188 C 99.601562 83.992188 99.601562 83.992188 99.597656 83.992188 L 96.3125 83.992188 C 96.308594 83.992188 96.308594 83.992188 96.308594 83.992188 L 95.613281 83.992188 Z M 92.058594 75.945312 C 92.058594 72.617188 94.777344 69.910156 98.117188 69.910156 C 101.453125 69.910156 104.171875 72.617188 104.171875 75.945312 C 104.171875 79.273438 101.453125 81.984375 98.117188 81.984375 C 94.777344 81.984375 92.058594 79.273438 92.058594 75.945312 Z M 92.058594 75.945312 " fill-opacity="1" fill-rule="nonzero"/><path fill="#6644a8" d="M 87.65625 68.945312 L 87.65625 73.304688 C 87.65625 73.5625 87.867188 73.765625 88.121094 73.765625 C 88.378906 73.765625 88.585938 73.5625 88.585938 73.304688 L 88.585938 68.945312 C 88.585938 68.691406 88.378906 68.480469 88.121094 68.480469 C 87.867188 68.480469 87.65625 68.691406 87.65625 68.945312 Z M 87.65625 68.945312 " fill-opacity="1" fill-rule="nonzero"/><path fill="#6644a8" d="M 81.375 71.125 C 81.375 72.605469 82.234375 73.765625 83.34375 73.765625 C 84.445312 73.765625 85.3125 72.605469 85.3125 71.125 C 85.3125 69.644531 84.445312 68.480469 83.34375 68.480469 C 82.234375 68.480469 81.375 69.644531 81.375 71.125 Z M 82.304688 71.125 C 82.304688 70.210938 82.785156 69.40625 83.34375 69.40625 C 83.90625 69.40625 84.386719 70.199219 84.386719 71.125 C 84.386719 72.058594 83.90625 72.839844 83.34375 72.839844 C 82.785156 72.839844 82.304688 72.039062 82.304688 71.125 Z M 82.304688 71.125 " fill-opacity="1" fill-rule="nonzero"/><path fill="#6644a8" d="M 90.882812 63.765625 C 90.882812 65.246094 91.742188 66.40625 92.851562 66.40625 C 93.953125 66.40625 94.820312 65.246094 94.820312 63.765625 C 94.820312 62.285156 93.953125 61.121094 92.851562 61.121094 C 91.742188 61.121094 90.882812 62.285156 90.882812 63.765625 Z M 91.8125 63.765625 C 91.8125 62.832031 92.289062 62.046875 92.851562 62.046875 C 93.414062 62.046875 93.890625 62.832031 93.890625 63.765625 C 93.890625 64.699219 93.414062 65.480469 92.851562 65.480469 C 92.289062 65.480469 91.8125 64.699219 91.8125 63.765625 Z M 91.8125 63.765625 " fill-opacity="1" fill-rule="nonzero"/><path fill="#6644a8" d="M 81.375 63.765625 C 81.375 65.246094 82.234375 66.40625 83.34375 66.40625 C 84.445312 66.40625 85.3125 65.246094 85.3125 63.765625 C 85.3125 62.285156 84.445312 61.121094 83.34375 61.121094 C 82.234375 61.121094 81.375 62.285156 81.375 63.765625 Z M 82.304688 63.765625 C 82.304688 62.851562 82.785156 62.046875 83.34375 62.046875 C 83.90625 62.046875 84.386719 62.832031 84.386719 63.765625 C 84.386719 64.699219 83.90625 65.480469 83.34375 65.480469 C 82.785156 65.480469 82.304688 64.679688 82.304688 63.765625 Z M 82.304688 63.765625 " fill-opacity="1" fill-rule="nonzero"/><path fill="#6644a8" d="M 75.703125 71.09375 C 75.703125 72.574219 76.5625 73.734375 77.671875 73.734375 C 78.773438 73.734375 79.640625 72.574219 79.640625 71.09375 C 79.640625 69.613281 78.773438 68.453125 77.671875 68.453125 C 76.5625 68.453125 75.703125 69.613281 75.703125 71.09375 Z M 76.628906 71.09375 C 76.628906 70.179688 77.113281 69.378906 77.671875 69.378906 C 78.234375 69.378906 78.710938 70.160156 78.710938 71.09375 C 78.710938 72.027344 78.234375 72.808594 77.671875 72.808594 C 77.113281 72.808594 76.628906 72.007812 76.628906 71.09375 Z M 76.628906 71.09375 " fill-opacity="1" fill-rule="nonzero"/><path fill="#6644a8" d="M 87.65625 75.835938 L 87.65625 80.195312 C 87.65625 80.453125 87.867188 80.65625 88.121094 80.65625 C 88.378906 80.65625 88.585938 80.453125 88.585938 80.195312 L 88.585938 75.835938 C 88.585938 75.582031 88.378906 75.371094 88.121094 75.371094 C 87.867188 75.371094 87.65625 75.582031 87.65625 75.835938 Z M 87.65625 75.835938 " fill-opacity="1" fill-rule="nonzero"/><path fill="#6644a8" d="M 77.207031 75.835938 L 77.207031 80.195312 C 77.207031 80.453125 77.410156 80.65625 77.671875 80.65625 C 77.925781 80.65625 78.136719 80.453125 78.136719 80.195312 L 78.136719 75.835938 C 78.136719 75.582031 77.925781 75.371094 77.671875 75.371094 C 77.410156 75.371094 77.207031 75.582031 77.207031 75.835938 Z M 77.207031 75.835938 " fill-opacity="1" fill-rule="nonzero"/><path fill="#6644a8" d="M 81.375 78.015625 C 81.375 79.496094 82.234375 80.65625 83.34375 80.65625 C 84.445312 80.65625 85.3125 79.496094 85.3125 78.015625 C 85.3125 76.53125 84.445312 75.371094 83.34375 75.371094 C 82.234375 75.371094 81.375 76.53125 81.375 78.015625 Z M 82.304688 78.015625 C 82.304688 77.101562 82.785156 76.296875 83.34375 76.296875 C 83.90625 76.296875 84.386719 77.089844 84.386719 78.015625 C 84.386719 78.945312 83.90625 79.730469 83.34375 79.730469 C 82.785156 79.730469 82.304688 78.929688 82.304688 78.015625 Z M 82.304688 78.015625 " fill-opacity="1" fill-rule="nonzero"/><path fill="#6644a8" d="M 87.65625 82.800781 L 87.65625 87.015625 C 87.65625 87.277344 87.867188 87.480469 88.121094 87.480469 C 88.378906 87.480469 88.585938 87.277344 88.585938 87.015625 L 88.585938 82.800781 C 88.585938 82.539062 88.378906 82.335938 88.121094 82.335938 C 87.867188 82.335938 87.65625 82.539062 87.65625 82.800781 Z M 87.65625 82.800781 " fill-opacity="1" fill-rule="nonzero"/><path fill="#6644a8" d="M 84.175781 82.800781 L 84.175781 87.015625 C 84.175781 87.277344 84.378906 87.480469 84.640625 87.480469 C 84.894531 87.480469 85.101562 87.277344 85.101562 87.015625 L 85.101562 82.800781 C 85.101562 82.539062 84.894531 82.335938 84.640625 82.335938 C 84.378906 82.335938 84.175781 82.539062 84.175781 82.800781 Z M 84.175781 82.800781 " fill-opacity="1" fill-rule="nonzero"/><path fill="#6644a8" d="M 80.6875 82.800781 L 80.6875 87.015625 C 80.6875 87.277344 80.898438 87.480469 81.152344 87.480469 C 81.40625 87.480469 81.617188 87.277344 81.617188 87.015625 L 81.617188 82.800781 C 81.617188 82.539062 81.40625 82.335938 81.152344 82.335938 C 80.898438 82.335938 80.6875 82.539062 80.6875 82.800781 Z M 80.6875 82.800781 " fill-opacity="1" fill-rule="nonzero"/><path fill="#6644a8" d="M 77.207031 82.800781 L 77.207031 87.015625 C 77.207031 87.277344 77.410156 87.480469 77.671875 87.480469 C 77.925781 87.480469 78.136719 87.277344 78.136719 87.015625 L 78.136719 82.800781 C 78.136719 82.539062 77.925781 82.335938 77.671875 82.335938 C 77.410156 82.335938 77.207031 82.539062 77.207031 82.800781 Z M 77.207031 82.800781 " fill-opacity="1" fill-rule="nonzero"/><path fill="#6644a8" d="M 87.65625 61.746094 L 87.65625 65.785156 C 87.65625 66.042969 87.867188 66.246094 88.121094 66.246094 C 88.378906 66.246094 88.585938 66.042969 88.585938 65.785156 L 88.585938 61.746094 C 88.585938 61.488281 88.378906 61.28125 88.121094 61.28125 C 87.867188 61.28125 87.65625 61.488281 87.65625 61.746094 Z M 87.65625 61.746094 " fill-opacity="1" fill-rule="nonzero"/><path fill="#aa96f3" d="M 71.667969 66.351562 L 71.667969 89.3125 C 71.667969 90.238281 72.425781 90.992188 73.355469 90.992188 L 93.167969 90.992188 C 93.421875 90.992188 93.632812 91.195312 93.632812 91.457031 C 93.632812 91.710938 93.421875 91.917969 93.167969 91.917969 L 95.261719 91.917969 L 95.570312 91.609375 L 94.957031 91 C 94.871094 90.914062 94.820312 90.796875 94.820312 90.671875 L 94.820312 90.339844 C 94.820312 90.214844 94.871094 90.097656 94.957031 90.011719 L 95.570312 89.398438 L 95.101562 88.929688 C 95.007812 88.84375 94.964844 88.726562 94.964844 88.605469 L 94.964844 87.992188 C 94.964844 87.894531 94.996094 87.800781 95.050781 87.71875 L 95.847656 86.640625 L 95.847656 84.917969 L 95.613281 84.917969 C 95.101562 84.917969 94.683594 84.503906 94.683594 83.992188 L 94.683594 82.003906 C 92.566406 80.8125 91.128906 78.539062 91.128906 75.945312 C 91.128906 72.105469 94.265625 68.980469 98.117188 68.980469 C 98.269531 68.980469 98.425781 68.988281 98.582031 68.996094 L 98.582031 67.328125 C 98.582031 67.582031 98.371094 67.789062 98.117188 67.789062 C 97.855469 67.789062 97.652344 67.582031 97.652344 67.328125 L 97.652344 59.503906 C 97.652344 58.585938 96.894531 57.832031 95.96875 57.832031 L 80.097656 57.832031 L 80.097656 64.03125 C 80.097656 65.265625 79.089844 66.265625 77.863281 66.265625 Z M 85.3125 63.765625 C 85.3125 65.246094 84.445312 66.40625 83.34375 66.40625 C 82.234375 66.40625 81.375 65.246094 81.375 63.765625 C 81.375 62.285156 82.234375 61.121094 83.34375 61.121094 C 84.445312 61.121094 85.3125 62.285156 85.3125 63.765625 Z M 85.3125 71.125 C 85.3125 72.605469 84.445312 73.765625 83.34375 73.765625 C 82.234375 73.765625 81.375 72.605469 81.375 71.125 C 81.375 69.644531 82.234375 68.480469 83.34375 68.480469 C 84.445312 68.480469 85.3125 69.644531 85.3125 71.125 Z M 90.882812 63.765625 C 90.882812 62.285156 91.742188 61.121094 92.851562 61.121094 C 93.953125 61.121094 94.820312 62.285156 94.820312 63.765625 C 94.820312 65.246094 93.953125 66.40625 92.851562 66.40625 C 91.742188 66.40625 90.882812 65.246094 90.882812 63.765625 Z M 87.65625 82.800781 C 87.65625 82.539062 87.867188 82.335938 88.121094 82.335938 C 88.378906 82.335938 88.585938 82.539062 88.585938 82.800781 L 88.585938 87.015625 C 88.585938 87.277344 88.378906 87.480469 88.121094 87.480469 C 87.867188 87.480469 87.65625 87.277344 87.65625 87.015625 Z M 87.65625 75.835938 C 87.65625 75.582031 87.867188 75.371094 88.121094 75.371094 C 88.378906 75.371094 88.585938 75.582031 88.585938 75.835938 L 88.585938 80.195312 C 88.585938 80.453125 88.378906 80.65625 88.121094 80.65625 C 87.867188 80.65625 87.65625 80.453125 87.65625 80.195312 Z M 87.65625 68.945312 C 87.65625 68.691406 87.867188 68.480469 88.121094 68.480469 C 88.378906 68.480469 88.585938 68.691406 88.585938 68.945312 L 88.585938 73.304688 C 88.585938 73.5625 88.378906 73.765625 88.121094 73.765625 C 87.867188 73.765625 87.65625 73.5625 87.65625 73.304688 Z M 87.65625 61.746094 C 87.65625 61.488281 87.867188 61.28125 88.121094 61.28125 C 88.378906 61.28125 88.585938 61.488281 88.585938 61.746094 L 88.585938 65.785156 C 88.585938 66.042969 88.378906 66.246094 88.121094 66.246094 C 87.867188 66.246094 87.65625 66.042969 87.65625 65.785156 Z M 84.175781 82.800781 C 84.175781 82.539062 84.378906 82.335938 84.640625 82.335938 C 84.894531 82.335938 85.101562 82.539062 85.101562 82.800781 L 85.101562 87.015625 C 85.101562 87.277344 84.894531 87.480469 84.640625 87.480469 C 84.378906 87.480469 84.175781 87.277344 84.175781 87.015625 Z M 81.375 78.015625 C 81.375 76.53125 82.234375 75.371094 83.34375 75.371094 C 84.445312 75.371094 85.3125 76.53125 85.3125 78.015625 C 85.3125 79.496094 84.445312 80.65625 83.34375 80.65625 C 82.234375 80.65625 81.375 79.496094 81.375 78.015625 Z M 80.6875 82.800781 C 80.6875 82.539062 80.898438 82.335938 81.152344 82.335938 C 81.40625 82.335938 81.617188 82.539062 81.617188 82.800781 L 81.617188 87.015625 C 81.617188 87.277344 81.40625 87.480469 81.152344 87.480469 C 80.898438 87.480469 80.6875 87.277344 80.6875 87.015625 Z M 77.207031 82.800781 C 77.207031 82.539062 77.410156 82.335938 77.671875 82.335938 C 77.925781 82.335938 78.136719 82.539062 78.136719 82.800781 L 78.136719 87.015625 C 78.136719 87.277344 77.925781 87.480469 77.671875 87.480469 C 77.410156 87.480469 77.207031 87.277344 77.207031 87.015625 Z M 77.207031 75.835938 C 77.207031 75.582031 77.410156 75.371094 77.671875 75.371094 C 77.925781 75.371094 78.136719 75.582031 78.136719 75.835938 L 78.136719 80.195312 C 78.136719 80.453125 77.925781 80.65625 77.671875 80.65625 C 77.410156 80.65625 77.207031 80.453125 77.207031 80.195312 Z M 75.703125 71.09375 C 75.703125 69.613281 76.5625 68.453125 77.671875 68.453125 C 78.773438 68.453125 79.640625 69.613281 79.640625 71.09375 C 79.640625 72.574219 78.773438 73.734375 77.671875 73.734375 C 76.5625 73.734375 75.703125 72.574219 75.703125 71.09375 Z M 75.703125 71.09375 " fill-opacity="1" fill-rule="nonzero"/><path fill="#6644a8" d="M 81.535156 96.371094 C 81.535156 96.214844 81.660156 96.09375 81.8125 96.09375 L 84.359375 96.09375 C 84.515625 96.09375 84.640625 96.214844 84.640625 96.371094 C 84.640625 96.523438 84.515625 96.648438 84.359375 96.648438 L 81.8125 96.648438 C 81.660156 96.648438 81.535156 96.523438 81.535156 96.371094 Z M 81.535156 96.371094 " fill-opacity="1" fill-rule="nonzero"/><path fill="#6644a8" d="M 74.214844 96.371094 C 74.214844 96.214844 74.339844 96.09375 74.492188 96.09375 L 80.042969 96.09375 C 80.199219 96.09375 80.320312 96.214844 80.320312 96.371094 C 80.320312 96.523438 80.199219 96.648438 80.042969 96.648438 L 74.492188 96.648438 C 74.339844 96.648438 74.214844 96.523438 74.214844 96.371094 Z M 74.214844 96.371094 " fill-opacity="1" fill-rule="nonzero"/><path fill="#6644a8" d="M 71.054688 96.371094 C 71.054688 95.851562 71.476562 95.433594 71.996094 95.433594 C 72.519531 95.433594 72.945312 95.851562 72.945312 96.371094 C 72.945312 96.890625 72.519531 97.316406 71.996094 97.316406 C 71.476562 97.316406 71.054688 96.890625 71.054688 96.371094 Z M 71.054688 96.371094 " fill-opacity="1" fill-rule="nonzero"/><path fill="#000000" d="M 68.957031 70.746094 C 68.957031 71.859375 68.050781 72.753906 66.945312 72.753906 L 64.113281 72.753906 L 64.113281 71.433594 L 65.847656 71.433594 L 62.484375 68.113281 L 59.121094 71.433594 L 60.855469 71.433594 L 60.855469 72.753906 L 58.542969 72.753906 C 57.152344 72.753906 56.011719 71.617188 56.011719 70.230469 C 56.011719 68.863281 57.09375 67.746094 58.445312 67.691406 C 58.796875 66.257812 60.09375 65.210938 61.628906 65.210938 C 63.164062 65.210938 64.460938 66.257812 64.824219 67.691406 L 64.910156 67.691406 C 65.765625 67.691406 66.515625 68.113281 66.980469 68.742188 C 68.070312 68.761719 68.957031 69.644531 68.957031 70.746094 Z M 68.957031 70.746094 " fill-opacity="0.1" fill-rule="nonzero"/><path fill="#6644a8" d="M 67.847656 69.644531 C 67.847656 70.753906 66.945312 71.648438 65.835938 71.648438 L 63.003906 71.648438 L 63.003906 70.328125 L 64.738281 70.328125 L 61.375 67.007812 L 58.011719 70.328125 L 59.746094 70.328125 L 59.746094 71.648438 L 57.4375 71.648438 C 56.042969 71.648438 54.902344 70.511719 54.902344 69.125 C 54.902344 67.757812 55.988281 66.640625 57.335938 66.585938 C 57.691406 65.152344 58.984375 64.105469 60.519531 64.105469 C 62.054688 64.105469 63.351562 65.152344 63.714844 66.585938 L 63.804688 66.585938 C 64.65625 66.585938 65.40625 67.007812 65.871094 67.636719 C 66.960938 67.660156 67.847656 68.542969 67.847656 69.644531 Z M 67.847656 69.644531 " fill-opacity="1" fill-rule="nonzero"/></svg>